<svg version="1.1" id="Layer_1" xmlns="http://www.w3.org/2000/svg" xmlns:xlink="http://www.w3.org/1999/xlink" x="0px" y="0px"
	 width="100%" viewBox="0 0 256 256" enable-background="new 0 0 256 256" xml:space="preserve">
<path fill="#000000" opacity="1.000000" stroke="none" 
	d="
M1.000000,92.000000 
	C1.000000,61.333340 1.000000,31.166677 1.000000,1.000012 
	C86.333313,1.000008 171.666626,1.000008 256.999939,1.000004 
	C256.999969,86.333290 256.999969,171.666580 257.000000,256.999908 
	C171.666718,256.999939 86.333435,256.999939 1.000077,256.999969 
	C1.000000,202.166672 1.000000,147.333328 1.000000,92.000000 
M140.753113,70.027359 
	C142.183441,69.392471 143.613785,68.757591 145.868088,68.028564 
	C148.574860,67.629356 151.281647,67.230141 154.800415,66.927734 
	C156.652557,66.284645 158.511719,65.067924 160.355698,65.090538 
	C173.398758,65.250572 186.441223,65.944336 199.478104,65.826668 
	C203.356613,65.791656 207.216614,63.706532 211.459274,62.786949 
	C211.459274,62.786949 211.762466,62.471939 212.176910,62.205853 
	C212.113235,61.781685 212.049576,61.357517 211.961639,60.123680 
	C211.345810,57.400681 210.729980,54.677677 210.030594,51.114716 
	C208.554886,44.128651 207.215408,37.110172 205.563339,30.166063 
	C204.053116,23.818218 199.195770,20.761602 191.143845,21.038282 
	C189.673172,20.964705 188.167038,21.068773 186.738647,20.783497 
	C182.805634,19.997999 178.905182,19.049412 174.237625,17.766024 
	C166.963287,16.746580 159.705719,15.580893 152.410309,14.745337 
	C143.625244,13.739166 134.808029,13.013531 125.105377,12.023952 
	C122.026588,11.702887 118.953300,11.197297 115.867691,11.105435 
	C111.593071,10.978176 107.309196,11.161991 102.202736,11.110260 
	C101.085014,11.275270 99.931633,11.316265 98.855446,11.625709 
	C92.556587,13.436859 86.275787,15.310807 79.254478,17.314680 
	C74.833824,18.932077 70.413177,20.549473 65.268517,22.294094 
	C54.762203,26.460291 54.762203,26.460291 55.030476,34.932926 
	C55.407581,66.950165 55.784691,98.967400 56.011013,131.913177 
	C56.394642,142.941589 56.778267,153.970001 57.025684,165.898132 
	C57.405773,174.594437 57.785862,183.290741 58.021137,192.910004 
	C58.403164,201.270828 58.785187,209.631638 59.030941,218.898743 
	C58.508301,226.780502 60.051296,234.297180 63.125271,241.520065 
	C63.388138,242.137711 64.103088,242.834442 64.729172,242.982635 
	C69.364204,244.079819 74.024704,245.072281 78.687027,246.050827 
	C94.103111,249.286377 109.693657,247.807251 126.056038,247.873901 
	C126.314301,241.917923 126.572556,235.961960 126.981537,229.158661 
	C127.265121,226.442947 127.548698,223.727249 127.986290,220.145966 
	C127.936516,218.098862 127.886742,216.051743 127.981865,213.179672 
	C127.932365,211.787796 127.882874,210.395905 127.976639,208.192017 
	C127.593529,206.131454 127.210419,204.070908 126.975426,201.225067 
	C126.594643,199.485733 126.213867,197.746414 126.167419,195.339539 
	C126.463455,193.928925 126.759491,192.518326 127.721672,191.245270 
	C128.141449,191.067245 128.884079,190.951736 128.932449,190.701828 
	C129.620209,187.148758 130.213974,183.577499 130.996033,179.268753 
	C133.390305,170.330185 138.992889,164.099152 147.834366,161.735352 
	C156.944092,159.299805 166.278931,157.574265 175.606079,156.120834 
	C185.028610,154.652512 194.562515,153.898956 204.690033,152.639526 
	C204.690033,151.463058 204.690033,150.286591 204.690033,149.110123 
	C204.967072,149.114700 205.244110,149.119293 205.521149,149.123871 
	C205.843170,150.135422 206.165192,151.146957 206.487213,152.158493 
	C206.092728,148.092514 206.573318,143.545654 202.404984,142.121506 
	C202.186386,139.793381 202.007812,137.891342 201.707397,135.284042 
	C199.796631,130.601364 198.119278,125.802315 195.868973,121.288925 
	C194.861572,119.268410 192.705307,117.820694 190.286102,115.978981 
	C189.233246,115.966133 188.180389,115.953285 186.900406,115.165749 
	C186.450272,114.793587 186.039581,114.162735 185.544220,114.087212 
	C174.074265,112.338333 162.595123,110.649757 150.973663,108.132462 
	C146.686554,107.407211 142.399429,106.681953 137.991577,105.209305 
	C135.678375,104.104065 133.365173,102.998833 130.754395,101.237610 
	C129.853500,99.456696 128.952591,97.675774 128.002930,95.070793 
	C127.612068,92.382004 127.221199,89.693207 127.141800,86.346649 
	C127.371666,85.233078 127.601524,84.119499 128.107468,82.395866 
	C128.777557,81.276917 129.447662,80.157967 130.735031,78.738228 
	C131.528290,77.171806 132.321564,75.605385 133.747101,73.999107 
	C134.516235,73.372192 135.285370,72.745277 136.720581,72.016472 
	C137.828552,71.386101 138.936508,70.755730 140.753113,70.027359 
z"/>
<path fill="#DC8430" opacity="1.000000" stroke="none" 
	d="
M126.004723,12.166451 
	C134.808029,13.013531 143.625244,13.739166 152.410309,14.745337 
	C159.705719,15.580893 166.963287,16.746580 174.688232,18.313553 
	C180.507248,28.855541 185.971252,38.800735 191.167450,48.883938 
	C192.273117,51.029461 192.403717,53.677479 192.557220,56.078392 
	C190.364243,55.846039 188.602814,55.554035 186.829666,55.430214 
	C184.190750,55.245926 181.543564,55.180447 178.479248,55.057747 
	C167.700043,54.707813 157.341461,54.364544 146.691940,53.979729 
	C145.936295,53.608112 145.471588,53.278042 145.227020,52.749054 
	C145.932785,51.739414 147.040405,50.544540 146.812042,50.174789 
	C142.392624,43.019108 137.501816,36.137505 133.379318,28.821249 
	C130.412613,23.556181 128.427628,17.737942 126.004723,12.166451 
z"/>
<path fill="#D8802F" opacity="1.000000" stroke="none" 
	d="
M125.555054,12.095201 
	C128.427628,17.737942 130.412613,23.556181 133.379318,28.821249 
	C137.501816,36.137505 142.392624,43.019108 146.812042,50.174789 
	C147.040405,50.544540 145.932785,51.739414 144.798355,52.778736 
	C136.422256,54.613857 128.694977,56.220379 120.895370,57.506073 
	C117.860474,52.413448 114.877464,47.654182 111.939972,42.866978 
	C107.266167,35.250126 102.622704,27.614645 98.001480,19.588711 
	C98.029137,18.655121 98.021721,18.119862 98.090042,17.471317 
	C98.284355,17.216324 98.426804,17.105232 98.937469,16.989166 
	C99.848022,16.325939 100.414253,15.698303 101.135666,14.794426 
	C101.870331,13.416327 102.449806,12.314467 103.029282,11.212608 
	C107.309196,11.161991 111.593071,10.978176 115.867691,11.105435 
	C118.953300,11.197297 122.026588,11.702887 125.555054,12.095201 
z"/>
<path fill="#B26028" opacity="1.000000" stroke="none" 
	d="
M125.231522,247.743881 
	C109.693657,247.807251 94.103111,249.286377 78.687027,246.050827 
	C74.024704,245.072281 69.364204,244.079819 64.729172,242.982635 
	C64.103088,242.834442 63.388138,242.137711 63.125271,241.520065 
	C60.051296,234.297180 58.508301,226.780502 59.488770,218.453369 
	C63.281647,218.997955 66.686104,219.801163 69.939697,221.010315 
	C83.818123,226.168060 97.659431,231.426132 111.495331,236.697372 
	C114.064003,237.675964 116.331627,238.078949 117.945572,235.313568 
	C120.505173,239.651703 122.868347,243.697800 125.231522,247.743881 
z"/>
<path fill="#FBBA5E" opacity="1.000000" stroke="none" 
	d="
M126.830338,87.004417 
	C127.221199,89.693207 127.612068,92.382004 127.749115,95.722031 
	C115.472084,100.061157 104.516563,105.805779 94.315666,113.150383 
	C89.032578,116.954178 84.998123,121.132477 85.902771,128.291595 
	C86.010284,129.142456 85.267036,130.100815 84.842422,130.589752 
	C84.425613,126.456238 84.084526,122.742325 83.811394,118.563011 
	C85.208481,108.737823 86.537613,99.378044 88.065666,89.724564 
	C93.357620,81.989662 98.450661,74.548462 103.866821,67.046906 
	C106.326180,65.843765 108.462418,64.700974 110.715248,63.686089 
	C110.831841,63.813999 111.065132,64.069710 110.901306,64.337372 
	C109.801620,65.731110 108.865761,66.857193 107.606659,68.046883 
	C105.851372,69.406281 104.419327,70.702057 102.697594,72.173965 
	C100.031647,74.215958 98.824028,76.590157 102.318359,78.007843 
	C110.378922,81.278076 118.646645,84.037666 126.830338,87.004417 
z"/>
<path fill="#AC8052" opacity="1.000000" stroke="none" 
	d="
M204.047638,152.832275 
	C194.562515,153.898956 185.028610,154.652512 175.606079,156.120834 
	C166.278931,157.574265 156.944092,159.299805 147.834366,161.735352 
	C138.992889,164.099152 133.390305,170.330185 130.551300,179.614624 
	C128.609879,178.403564 126.444901,177.103790 125.730019,175.246002 
	C122.295059,166.319458 124.784134,158.374649 130.403214,151.054260 
	C131.553482,149.555725 132.167557,147.645599 133.355377,145.932312 
	C134.116974,145.912277 134.551971,145.885101 135.386230,145.911469 
	C138.183655,146.257492 140.581818,146.549988 143.438538,146.871429 
	C147.270065,146.886871 150.643005,146.873352 154.481964,146.882690 
	C160.300079,146.932770 165.652176,146.960022 171.460571,146.998383 
	C178.021866,147.393082 184.207565,147.299088 190.206131,148.312607 
	C194.939377,149.112350 199.442383,151.274948 204.047638,152.832275 
z"/>
<path fill="#B96629" opacity="1.000000" stroke="none" 
	d="
M117.749153,235.021500 
	C116.331627,238.078949 114.064003,237.675964 111.495331,236.697372 
	C97.659431,231.426132 83.818123,226.168060 69.939697,221.010315 
	C66.686104,219.801163 63.281647,218.997955 59.556908,218.000214 
	C58.785187,209.631638 58.403164,201.270828 58.260567,192.448822 
	C58.500000,191.987625 58.834049,191.986954 58.906319,192.443726 
	C58.978584,196.561432 58.978584,200.222382 58.978584,203.883316 
	C59.260921,203.870911 59.543255,203.858490 59.825592,203.846069 
	C59.939049,202.895294 60.052509,201.944504 60.522724,201.070038 
	C73.280281,205.720520 85.635498,210.426682 98.126259,214.740326 
	C100.234543,215.468414 102.927277,214.504135 105.563713,214.598083 
	C106.858200,216.259628 107.938957,217.644836 109.005722,219.019165 
	C108.991730,219.008301 108.978302,218.975510 108.986160,219.295197 
	C109.653801,220.384171 110.313568,221.153427 110.982697,222.300232 
	C111.967155,224.124847 112.942261,225.571945 114.211365,227.226196 
	C115.644371,229.636612 116.783386,231.839859 117.881821,234.288193 
	C117.841248,234.533279 117.749153,235.021500 117.749153,235.021500 
z"/>
<path fill="#D07D2D" opacity="1.000000" stroke="none" 
	d="
M204.368835,152.735901 
	C199.442383,151.274948 194.939377,149.112350 190.206131,148.312607 
	C184.207565,147.299088 178.021866,147.393082 171.365845,146.674728 
	C168.868057,144.876602 167.035217,143.222076 164.955170,141.982330 
	C155.035431,136.069962 148.224915,128.193008 148.461761,115.964020 
	C153.603317,116.056763 158.279037,116.172974 162.942810,116.637054 
	C163.219757,119.185631 162.980362,121.637527 163.887131,123.544388 
	C168.285660,132.794037 176.603943,136.182312 186.065628,136.865967 
	C191.271881,137.242126 196.571625,136.323929 201.829224,135.989319 
	C202.007812,137.891342 202.186386,139.793381 202.404984,142.121506 
	C206.573318,143.545654 206.092728,148.092514 206.487213,152.158493 
	C206.165192,151.146957 205.843170,150.135422 205.521149,149.123871 
	C205.244110,149.119293 204.967072,149.114700 204.690033,149.110123 
	C204.690033,150.286591 204.690033,151.463058 204.368835,152.735901 
z"/>
<path fill="#C5712B" opacity="1.000000" stroke="none" 
	d="
M58.834049,191.986954 
	C58.834049,191.986954 58.500000,191.987625 58.332977,191.987335 
	C57.785862,183.290741 57.405773,174.594437 57.448502,165.522339 
	C64.650398,167.609955 71.368347,170.267288 78.241081,172.433578 
	C80.708420,173.211288 83.548775,172.805557 86.434906,173.207031 
	C89.533653,180.450470 92.416374,187.426819 95.169281,194.771301 
	C93.194252,195.350525 91.126015,196.211151 89.540222,195.666656 
	C79.688751,192.284103 69.945496,188.586426 60.103020,184.557205 
	C60.039700,181.701111 60.039700,179.281113 60.039700,176.861115 
	C59.637817,176.861679 59.235931,176.862244 58.834049,176.862808 
	C58.834049,181.904190 58.834049,186.945572 58.834049,191.986954 
z"/>
<path fill="#D29C58" opacity="1.000000" stroke="none" 
	d="
M126.827309,202.010345 
	C127.210419,204.070908 127.593529,206.131454 127.542618,208.575775 
	C117.626572,205.890320 110.815483,199.343628 105.704155,191.233887 
	C102.484772,186.125977 99.509087,180.415222 98.318459,174.587860 
	C96.712112,166.725800 97.932320,158.535431 101.554611,151.199585 
	C105.933372,142.331741 111.489967,134.308105 120.986359,130.399445 
	C121.333519,132.879227 121.658646,134.954361 121.730659,137.246201 
	C118.760887,140.039993 115.667763,142.323090 113.388550,145.241776 
	C98.394600,164.442627 106.631424,191.424042 126.827309,202.010345 
z"/>
<path fill="#D27F2F" opacity="1.000000" stroke="none" 
	d="
M192.983551,56.093987 
	C192.403717,53.677479 192.273117,51.029461 191.167450,48.883938 
	C185.971252,38.800735 180.507248,28.855541 175.065338,18.513214 
	C178.905182,19.049412 182.805634,19.997999 186.738647,20.783497 
	C188.167038,21.068773 189.673172,20.964705 191.570267,21.494600 
	C192.305695,23.550823 192.240555,25.355696 192.986053,26.716486 
	C197.023636,34.086426 201.146271,41.417023 205.524612,48.587143 
	C206.439392,50.085236 208.552994,50.851284 210.114166,51.954674 
	C210.729980,54.677677 211.345810,57.400681 211.811249,60.757187 
	C211.694733,61.751106 211.728607,62.111523 211.762482,62.471939 
	C211.762466,62.471939 211.459274,62.786949 210.902893,62.505234 
	C207.222687,61.472507 204.098877,60.721497 200.889969,59.628002 
	C198.197769,58.221676 195.590652,57.157829 192.983551,56.093987 
z"/>
<path fill="#DC8430" opacity="1.000000" stroke="none" 
	d="
M201.768311,135.636688 
	C196.571625,136.323929 191.271881,137.242126 186.065628,136.865967 
	C176.603943,136.182312 168.285660,132.794037 163.887131,123.544388 
	C162.980362,121.637527 163.219757,119.185631 163.400208,116.573425 
	C171.398895,116.636971 178.924438,117.206947 186.460724,117.507332 
	C187.976349,117.567749 189.532791,116.604378 191.070404,116.113022 
	C192.705307,117.820694 194.861572,119.268410 195.868973,121.288925 
	C198.119278,125.802315 199.796631,130.601364 201.768311,135.636688 
z"/>
<path fill="#AC8052" opacity="1.000000" stroke="none" 
	d="
M200.975067,59.970482 
	C204.098877,60.721497 207.222687,61.472507 210.715790,62.392147 
	C207.216614,63.706532 203.356613,65.791656 199.478104,65.826668 
	C186.441223,65.944336 173.398758,65.250572 160.355698,65.090538 
	C158.511719,65.067924 156.652557,66.284645 154.313568,66.547272 
	C152.276611,65.076019 150.729538,63.980896 149.175781,62.895302 
	C145.745010,60.498234 142.310913,58.105953 139.212280,55.519806 
	C142.025238,54.892353 144.504059,54.456814 146.982895,54.021271 
	C157.341461,54.364544 167.700043,54.707813 178.797623,55.284660 
	C186.682785,57.002319 193.828918,58.486401 200.975067,59.970482 
z"/>
<path fill="#D8802F" opacity="1.000000" stroke="none" 
	d="
M56.161800,130.984634 
	C55.784691,98.967400 55.407581,66.950165 55.265236,34.468559 
	C55.500000,34.004189 55.834869,34.004135 55.902191,34.468277 
	C55.969517,54.359097 55.969517,73.785774 55.969517,93.212448 
	C56.225208,93.223434 56.480900,93.234428 56.736595,93.245422 
	C56.879532,91.162315 57.022472,89.079208 57.521328,87.073586 
	C62.281784,87.765869 66.686317,88.380669 71.095154,89.445679 
	C71.089676,92.880661 71.079903,95.865417 71.048653,99.309280 
	C71.342583,102.842171 71.657990,105.915955 71.986145,109.430573 
	C72.326683,113.649109 72.654465,117.426819 72.987244,121.496529 
	C72.981163,122.179070 72.970085,122.569603 72.589706,123.039139 
	C70.038658,123.028900 67.825638,123.137520 65.683235,122.799088 
	C63.145508,122.398201 60.668663,121.611908 58.100334,120.528481 
	C58.035240,112.643616 58.035240,105.222931 58.035240,97.802254 
	C57.636227,97.802589 57.237217,97.802925 56.838203,97.803261 
	C56.838203,108.863960 56.838203,119.924652 56.669102,130.986008 
	C56.500000,130.986664 56.161800,130.984634 56.161800,130.984634 
z"/>
<path fill="#C8732C" opacity="1.000000" stroke="none" 
	d="
M56.086407,131.448914 
	C56.161800,130.984634 56.500000,130.986664 56.744492,131.450180 
	C56.988983,138.334335 56.988983,144.754990 56.988983,151.175629 
	C57.234669,151.185989 57.480350,151.196350 57.726036,151.206696 
	C57.871269,149.135361 58.016502,147.064026 58.536045,145.018219 
	C63.592854,146.689575 68.351204,148.152542 72.928741,150.051407 
	C75.576729,151.149857 77.000710,150.509064 78.209686,148.241425 
	C78.968384,148.946198 79.503395,149.470078 80.018448,149.995407 
	C79.998489,149.996872 80.035042,149.978699 79.931717,150.306320 
	C79.973846,151.901764 79.926430,153.229279 80.297150,154.427399 
	C82.212143,160.616486 84.234184,166.772430 86.218895,172.939941 
	C83.548775,172.805557 80.708420,173.211288 78.241081,172.433578 
	C71.368347,170.267288 64.650398,167.609955 57.516609,165.072479 
	C56.778267,153.970001 56.394642,142.941589 56.086407,131.448914 
z"/>
<path fill="#D8A059" opacity="1.000000" stroke="none" 
	d="
M120.964340,129.994797 
	C111.489967,134.308105 105.933372,142.331741 101.554611,151.199585 
	C97.932320,158.535431 96.712112,166.725800 98.318459,174.587860 
	C99.509087,180.415222 102.484772,186.125977 105.704155,191.233887 
	C110.815483,199.343628 117.626572,205.890320 127.470985,208.981781 
	C127.882874,210.395905 127.932365,211.787796 127.530273,213.585632 
	C122.447731,211.547806 117.827187,209.084000 113.181557,206.668442 
	C110.737007,205.397339 108.248619,204.210587 105.606934,202.692657 
	C101.632973,191.609528 97.832108,180.819504 94.022957,169.610336 
	C93.670570,166.469040 93.326469,163.746857 93.139412,160.700714 
	C97.281487,152.785202 100.351830,144.480179 105.540985,137.827972 
	C109.691208,132.507629 116.418190,129.197296 122.210800,124.988014 
	C122.420090,124.981178 122.838356,124.960274 122.705132,125.273300 
	C122.036057,127.055824 121.500198,128.525314 120.964340,129.994797 
z"/>
<path fill="#F5B55E" opacity="1.000000" stroke="none" 
	d="
M84.918144,131.009354 
	C85.267036,130.100815 86.010284,129.142456 85.902771,128.291595 
	C84.998123,121.132477 89.032578,116.954178 94.315666,113.150383 
	C104.516563,105.805779 115.472084,100.061157 127.773499,96.134064 
	C128.952591,97.675774 129.853500,99.456696 130.665100,101.826736 
	C129.116486,103.200241 127.731049,104.196091 126.186264,104.735870 
	C112.758415,109.427734 101.105141,116.718201 91.208618,127.072655 
	C87.649994,130.795944 86.059998,134.207718 88.008804,139.412476 
	C88.667480,142.548477 89.323753,145.276398 89.987946,148.429382 
	C90.303406,152.284866 90.610954,155.715271 90.651619,158.881317 
	C88.562538,149.414429 86.740341,140.211884 84.918144,131.009354 
z"/>
<path fill="#D27F2F" opacity="1.000000" stroke="none" 
	d="
M55.834869,34.004135 
	C55.834869,34.004135 55.500000,34.004189 55.332565,34.004494 
	C54.762203,26.460291 54.762203,26.460291 65.663849,22.584158 
	C67.365723,23.968893 68.509125,25.437016 70.007858,26.091722 
	C75.631477,28.548328 81.371109,30.739368 86.930321,33.353092 
	C84.829048,37.778069 82.864716,41.879887 80.510719,45.980606 
	C78.546883,45.561600 76.956108,45.197323 75.401451,44.716309 
	C69.316353,42.833534 63.242661,40.913883 57.092308,38.558685 
	C57.019890,35.003235 57.019890,31.897030 57.019890,28.790827 
	C56.774441,28.775784 56.528988,28.760738 56.283539,28.745693 
	C56.133980,30.498507 55.984425,32.251320 55.834869,34.004135 
z"/>
<path fill="#E5AA5B" opacity="1.000000" stroke="none" 
	d="
M89.980034,148.004318 
	C89.323753,145.276398 88.667480,142.548477 88.345673,139.344269 
	C89.784508,137.915146 90.918892,136.994705 91.988289,136.004105 
	C98.309616,130.148590 103.954926,123.241226 111.099884,118.681091 
	C119.421394,113.370056 129.050583,110.107933 138.112320,105.956696 
	C142.399429,106.681953 146.686554,107.407211 150.698792,108.697601 
	C146.962463,110.828140 143.501022,112.393539 139.614792,113.970566 
	C135.868042,115.088791 132.546066,116.195381 129.139557,117.263756 
	C129.055038,117.225540 129.044800,117.044861 128.842926,117.182587 
	C128.388443,117.532822 128.182632,117.783730 128.029388,118.040291 
	C128.035126,118.007530 128.076233,118.059837 127.782692,118.093925 
	C127.006668,118.441429 126.524193,118.754845 126.080002,119.079117 
	C126.118301,119.089981 126.099945,119.167442 125.818832,119.105804 
	C125.348976,119.012886 125.160225,118.981606 124.709793,118.749298 
	C122.896744,118.900185 121.188217,118.946945 119.818871,119.652237 
	C108.729576,125.363914 100.371475,133.973038 93.735558,144.423492 
	C92.835701,145.840607 91.248810,146.821457 89.980034,148.004318 
z"/>
<path fill="#B78854" opacity="1.000000" stroke="none" 
	d="
M133.028778,145.925186 
	C132.167557,147.645599 131.553482,149.555725 130.403214,151.054260 
	C124.784134,158.374649 122.295059,166.319458 125.730019,175.246002 
	C126.444901,177.103790 128.609879,178.403564 130.468506,179.985565 
	C130.213974,183.577499 129.620209,187.148758 128.932449,190.701828 
	C128.884079,190.951736 128.141449,191.067245 127.217331,190.879959 
	C125.948975,189.639648 125.170654,188.776672 124.423119,187.887833 
	C113.067665,174.385773 114.747803,154.849380 128.530746,143.941620 
	C130.250046,144.620453 131.639404,145.272812 133.028778,145.925186 
z"/>
<path fill="#ECAF5D" opacity="1.000000" stroke="none" 
	d="
M138.051941,105.582993 
	C129.050583,110.107933 119.421394,113.370056 111.099884,118.681091 
	C103.954926,123.241226 98.309616,130.148590 91.988289,136.004105 
	C90.918892,136.994705 89.784508,137.915146 88.343269,138.936203 
	C86.059998,134.207718 87.649994,130.795944 91.208618,127.072655 
	C101.105141,116.718201 112.758415,109.427734 126.186264,104.735870 
	C127.731049,104.196091 129.116486,103.200241 130.813889,102.154724 
	C133.365173,102.998833 135.678375,104.104065 138.051941,105.582993 
z"/>
<path fill="#C08F55" opacity="1.000000" stroke="none" 
	d="
M128.200821,143.915146 
	C114.747803,154.849380 113.067665,174.385773 124.423119,187.887833 
	C125.170654,188.776672 125.948975,189.639648 126.884247,190.811188 
	C126.759491,192.518326 126.463455,193.928925 125.674973,195.597824 
	C116.697853,189.212067 111.609879,180.841232 110.932411,169.795120 
	C110.177765,157.490906 115.414062,148.058060 124.283096,140.134430 
	C125.774574,141.500275 126.987701,142.707703 128.200821,143.915146 
z"/>
<path fill="#C89556" opacity="1.000000" stroke="none" 
	d="
M124.004745,139.976028 
	C115.414062,148.058060 110.177765,157.490906 110.932411,169.795120 
	C111.609879,180.841232 116.697853,189.212067 125.507797,195.931595 
	C126.213867,197.746414 126.594643,199.485733 126.901367,201.617706 
	C106.631424,191.424042 98.394600,164.442627 113.388550,145.241776 
	C115.667763,142.323090 118.760887,140.039993 121.959938,137.440125 
	C122.963135,138.270233 123.483940,139.123123 124.004745,139.976028 
z"/>
<path fill="#C9792D" opacity="1.000000" stroke="none" 
	d="
M210.072372,51.534698 
	C208.552994,50.851284 206.439392,50.085236 205.524612,48.587143 
	C201.146271,41.417023 197.023636,34.086426 192.986053,26.716486 
	C192.240555,25.355696 192.305695,23.550823 191.993561,21.558914 
	C199.195770,20.761602 204.053116,23.818218 205.563339,30.166063 
	C207.215408,37.110172 208.554886,44.128651 210.072372,51.534698 
z"/>
<path fill="#C9792D" opacity="1.000000" stroke="none" 
	d="
M87.067261,33.029934 
	C81.371109,30.739368 75.631477,28.548328 70.007858,26.091722 
	C68.509125,25.437016 67.365723,23.968893 66.025848,22.520546 
	C70.413177,20.549473 74.833824,18.932077 79.707359,17.571016 
	C84.394775,19.876425 88.629303,21.925499 92.897156,24.235474 
	C92.946495,24.670853 92.962517,24.845331 92.991760,25.011120 
	C93.004974,25.002430 93.012192,24.971622 92.728226,25.119455 
	C91.954994,26.184513 91.465721,27.101738 90.990189,28.010757 
	C91.003922,28.002554 91.012093,27.971626 90.721794,28.138657 
	C89.612968,29.876619 88.794441,31.447550 87.989853,33.011726 
	C88.003799,33.004974 88.013802,32.975647 87.776756,32.981945 
	C87.539711,32.988243 87.067261,33.029934 87.067261,33.029934 
z"/>
<path fill="#DEA55A" opacity="1.000000" stroke="none" 
	d="
M105.780029,202.985733 
	C108.248619,204.210587 110.737007,205.397339 113.181557,206.668442 
	C117.827187,209.084000 122.447731,211.547806 127.457825,213.998108 
	C127.886742,216.051743 127.936516,218.098862 127.514832,220.575211 
	C124.396683,220.186890 121.746849,219.379288 119.104172,218.548935 
	C116.462265,217.718811 113.827515,216.865921 110.979706,215.723572 
	C109.106529,211.277985 107.443275,207.131851 105.780029,202.985733 
z"/>
<path fill="#F5B55E" opacity="1.000000" stroke="none" 
	d="
M126.986069,86.675537 
	C118.646645,84.037666 110.378922,81.278076 102.318359,78.007843 
	C98.824028,76.590157 100.031647,74.215958 103.013870,72.325500 
	C111.690353,75.869247 119.760864,79.437592 127.831383,83.005928 
	C127.601524,84.119499 127.371666,85.233078 126.986069,86.675537 
z"/>
<path fill="#D8A059" opacity="1.000000" stroke="none" 
	d="
M140.039566,113.958939 
	C143.501022,112.393539 146.962463,110.828140 150.770798,109.106377 
	C162.595123,110.649757 174.074265,112.338333 185.544220,114.087212 
	C186.039581,114.162735 186.450272,114.793587 186.579681,115.563522 
	C170.852478,115.293846 155.446030,114.626396 140.039566,113.958939 
z"/>
<path fill="#ECAF5D" opacity="1.000000" stroke="none" 
	d="
M111.189636,216.023026 
	C113.827515,216.865921 116.462265,217.718811 119.104172,218.548935 
	C121.746849,219.379288 124.396683,220.186890 127.437836,221.007996 
	C127.548698,223.727249 127.265121,226.442947 126.551949,229.507507 
	C123.366180,229.014236 120.610001,228.172119 117.922394,227.350937 
	C117.922394,229.989059 117.922394,232.016083 117.922394,234.043106 
	C116.783386,231.839859 115.644371,229.636612 114.221924,226.828781 
	C113.099388,223.691254 112.260292,221.158325 111.396439,218.298889 
	C111.310997,217.322601 111.250313,216.672806 111.189636,216.023026 
z"/>
<path fill="#BD722B" opacity="1.000000" stroke="none" 
	d="
M92.863838,23.974573 
	C88.629303,21.925499 84.394775,19.876425 80.074570,17.495459 
	C86.275787,15.310807 92.556587,13.436859 98.855446,11.625709 
	C99.931633,11.316265 101.085014,11.275270 102.616013,11.161434 
	C102.449806,12.314467 101.870331,13.416327 100.820488,14.853747 
	C99.764458,15.801126 99.178802,16.412943 98.593140,17.024759 
	C98.426804,17.105232 98.284355,17.216324 97.879807,17.742748 
	C97.384918,18.753382 97.175987,19.379297 96.990997,20.012577 
	C97.014946,20.019941 97.018326,19.969955 96.769394,20.055481 
	C96.336739,20.431936 96.153023,20.722864 95.994080,21.015495 
	C96.018852,21.017197 96.011154,20.968124 95.761337,21.054005 
	C95.328903,21.433233 95.146294,21.726582 94.989891,22.017361 
	C95.016106,22.014788 95.008400,21.962677 94.754852,22.115374 
	C93.955490,22.836905 93.409660,23.405739 92.863838,23.974573 
z"/>
<path fill="#ECAF5D" opacity="1.000000" stroke="none" 
	d="
M127.969421,82.700897 
	C119.760864,79.437592 111.690353,75.869247 103.303558,72.149376 
	C104.419327,70.702057 105.851372,69.406281 107.925987,68.195801 
	C115.751625,71.867081 122.934700,75.453049 130.117767,79.039017 
	C129.447662,80.157967 128.777557,81.276917 127.969421,82.700897 
z"/>
<path fill="#DEA55A" opacity="1.000000" stroke="none" 
	d="
M130.426392,78.888626 
	C122.934700,75.453049 115.751625,71.867081 108.249229,68.132187 
	C108.865761,66.857193 109.801620,65.731110 111.263443,64.319702 
	C112.516617,64.006577 113.243835,63.978779 114.156143,64.239349 
	C120.599098,67.698128 126.856964,70.868546 133.114822,74.038963 
	C132.321564,75.605385 131.528290,77.171806 130.426392,78.888626 
z"/>
<path fill="#F5B55E" opacity="1.000000" stroke="none" 
	d="
M117.881821,234.288193 
	C117.922394,232.016083 117.922394,229.989059 117.922394,227.350937 
	C120.610001,228.172119 123.366180,229.014236 126.476585,229.931183 
	C126.572556,235.961960 126.314301,241.917923 125.643784,247.808899 
	C122.868347,243.697800 120.505173,239.651703 117.945572,235.313568 
	C117.749153,235.021500 117.841248,234.533279 117.881821,234.288193 
z"/>
<path fill="#ECAF5D" opacity="1.000000" stroke="none" 
	d="
M139.614792,113.970573 
	C155.446030,114.626396 170.852478,115.293846 186.693237,115.950867 
	C188.180389,115.953285 189.233246,115.966133 190.678253,116.046005 
	C189.532791,116.604378 187.976349,117.567749 186.460724,117.507332 
	C178.924438,117.206947 171.398895,116.636971 163.412155,116.225548 
	C158.279037,116.172974 153.603317,116.056763 148.012619,115.940475 
	C144.397293,115.953896 141.696945,115.967392 138.579788,115.959503 
	C135.763672,116.391747 133.364365,116.845383 130.674133,117.298210 
	C129.996811,117.298920 129.610458,117.300446 129.224091,117.301971 
	C132.546066,116.195381 135.868042,115.088791 139.614792,113.970573 
z"/>
<path fill="#B78854" opacity="1.000000" stroke="none" 
	d="
M138.878159,55.711723 
	C142.310913,58.105953 145.745010,60.498234 149.175781,62.895302 
	C150.729538,63.980896 152.276611,65.076019 153.907562,66.498871 
	C151.281647,67.230141 148.574860,67.629356 145.381470,67.726715 
	C142.243881,65.606842 139.487991,63.920975 136.976929,61.926811 
	C135.142670,60.470131 133.630707,58.607643 132.302765,56.725155 
	C134.713013,56.253414 136.795593,55.982571 138.878159,55.711723 
z"/>
<path fill="#D29C58" opacity="1.000000" stroke="none" 
	d="
M133.430969,74.019035 
	C126.856964,70.868546 120.599098,67.698128 114.357819,63.959251 
	C115.844048,62.902626 117.313698,62.414467 119.097885,62.092499 
	C121.094643,63.246994 122.780411,64.229317 124.458366,65.224808 
	C128.325760,67.519264 132.189362,69.820114 136.054504,72.118370 
	C135.285370,72.745277 134.516235,73.372192 133.430969,74.019035 
z"/>
<path fill="#C08F55" opacity="1.000000" stroke="none" 
	d="
M131.975067,56.926048 
	C133.630707,58.607643 135.142670,60.470131 136.976929,61.926811 
	C139.487991,63.920975 142.243881,65.606842 144.969482,67.773781 
	C143.613785,68.757591 142.183441,69.392471 140.321152,69.723419 
	C138.662704,68.459373 137.479675,67.436562 136.201538,66.551003 
	C132.475403,63.969292 128.711227,61.442440 125.245193,58.673656 
	C127.677299,57.944172 129.826187,57.435108 131.975067,56.926048 
z"/>
<path fill="#C89556" opacity="1.000000" stroke="none" 
	d="
M124.961967,58.894077 
	C128.711227,61.442440 132.475403,63.969292 136.201538,66.551003 
	C137.479675,67.436562 138.662704,68.459373 139.966827,69.772415 
	C138.936508,70.755730 137.828552,71.386101 136.387543,72.067421 
	C132.189362,69.820114 128.325760,67.519264 124.458366,65.224808 
	C122.780411,64.229317 121.094643,63.246994 119.325806,61.821709 
	C121.146782,60.554512 123.054375,59.724297 124.961967,58.894077 
z"/>
<path fill="#AC8052" opacity="1.000000" stroke="none" 
	d="
M211.969696,62.338898 
	C211.728607,62.111523 211.694733,61.751106 211.823395,61.162022 
	C212.049576,61.357517 212.113235,61.781685 211.969696,62.338898 
z"/>
<path fill="#FBBA5E" opacity="1.000000" stroke="none" 
	d="
M125.245193,58.673656 
	C123.054375,59.724297 121.146782,60.554512 119.011261,61.655518 
	C117.313698,62.414467 115.844048,62.902626 114.172729,63.670883 
	C113.243835,63.978779 112.516617,64.006577 111.427261,64.052040 
	C111.065132,64.069710 110.831841,63.813999 110.932198,63.438675 
	C114.344261,61.317863 117.655975,59.572380 120.967682,57.826897 
	C128.694977,56.220379 136.422256,54.613857 144.578217,52.977657 
	C145.471588,53.278042 145.936295,53.608112 146.691940,53.979729 
	C144.504059,54.456814 142.025238,54.892353 139.212280,55.519810 
	C136.795593,55.982571 134.713013,56.253414 132.302765,56.725151 
	C129.826187,57.435108 127.677299,57.944172 125.245193,58.673656 
z"/>
<path fill="#E5AA5B" opacity="1.000000" stroke="none" 
	d="
M200.889969,59.628002 
	C193.828918,58.486401 186.682785,57.002319 179.218262,55.291321 
	C181.543564,55.180447 184.190750,55.245926 186.829666,55.430214 
	C188.602814,55.554035 190.364243,55.846039 192.557220,56.078392 
	C195.590652,57.157829 198.197769,58.221676 200.889969,59.628002 
z"/>
<path fill="#D07A2E" opacity="1.000000" stroke="none" 
	d="
M120.895370,57.506073 
	C117.655975,59.572380 114.344261,61.317863 110.815605,63.310764 
	C108.462418,64.700974 106.326180,65.843765 103.462753,67.014839 
	C101.353546,65.999443 99.443840,65.248177 98.676704,63.863785 
	C94.292923,55.952709 90.181023,47.890972 86.086365,39.544685 
	C86.801903,37.131187 87.407852,35.053417 88.013802,32.975647 
	C88.013802,32.975647 88.003799,33.004974 88.330025,32.937904 
	C89.441536,31.237768 90.226814,29.604698 91.012093,27.971626 
	C91.012093,27.971626 91.003922,28.002554 91.322968,27.939741 
	C92.098732,26.908493 92.555458,25.940058 93.012192,24.971622 
	C93.012192,24.971622 93.004974,25.002430 93.322807,24.934158 
	C94.096558,23.898149 94.552475,22.930412 95.008400,21.962677 
	C95.008400,21.962677 95.016106,22.014788 95.245857,21.937601 
	C95.654121,21.562986 95.832642,21.265556 96.011154,20.968124 
	C96.011154,20.968124 96.018852,21.017197 96.231201,20.914761 
	C96.635147,20.531534 96.826736,20.250746 97.018326,19.969955 
	C97.018326,19.969955 97.014946,20.019941 97.241028,20.018517 
	C97.633553,20.007074 97.799980,19.997057 97.966408,19.987041 
	C102.622704,27.614645 107.266167,35.250126 111.939972,42.866978 
	C114.877464,47.654182 117.860474,52.413448 120.895370,57.506073 
z"/>
<path fill="#F5B55E" opacity="1.000000" stroke="none" 
	d="
M98.937469,16.989166 
	C99.178802,16.412943 99.764458,15.801126 100.665298,15.129988 
	C100.414253,15.698303 99.848022,16.325939 98.937469,16.989166 
z"/>
<path fill="#F5B55E" opacity="1.000000" stroke="none" 
	d="
M98.001480,19.588711 
	C97.799980,19.997057 97.633553,20.007074 97.217087,20.011150 
	C97.175987,19.379297 97.384918,18.753382 97.804077,17.856033 
	C98.021721,18.119862 98.029137,18.655121 98.001480,19.588711 
z"/>
<path fill="#C8732C" opacity="1.000000" stroke="none" 
	d="
M85.976776,39.880409 
	C90.181023,47.890972 94.292923,55.952709 98.676704,63.863785 
	C99.443840,65.248177 101.353546,65.999443 103.139626,67.075180 
	C98.450661,74.548462 93.357620,81.989662 87.714172,89.699097 
	C83.437225,84.954170 79.710686,79.941025 75.984016,74.562424 
	C75.990463,72.126343 75.997040,70.055717 76.223770,67.687958 
	C79.621544,58.220680 82.799156,49.050545 85.976776,39.880409 
z"/>
<path fill="#B6642A" opacity="1.000000" stroke="none" 
	d="
M110.979706,215.723572 
	C111.250313,216.672806 111.310997,217.322601 111.215958,218.461273 
	C111.060234,218.950180 110.706589,219.282959 110.427017,219.165161 
	C109.757736,219.023422 109.368019,218.999466 108.978302,218.975510 
	C108.978302,218.975510 108.991730,219.008301 109.070389,218.641083 
	C108.247604,216.142029 107.350037,214.008545 106.444115,211.878616 
	C98.904572,194.152176 91.366455,176.425140 83.819931,158.701675 
	C82.578255,155.785522 81.297646,152.885941 80.035042,149.978699 
	C80.035042,149.978699 79.998489,149.996872 80.167458,149.577759 
	C78.538727,139.774139 76.741035,130.389603 74.952179,120.596054 
	C74.749580,117.801720 74.538147,115.416428 74.662018,113.060669 
	C77.912697,115.069611 80.828064,117.049011 83.743439,119.028412 
	C84.084526,122.742325 84.425613,126.456238 84.842422,130.589752 
	C86.740341,140.211884 88.562538,149.414429 90.682175,158.850327 
	C90.979614,159.083694 90.929283,159.012741 90.902237,159.418304 
	C91.927200,163.225739 92.979225,166.627609 94.031242,170.029465 
	C97.832108,180.819504 101.632973,191.609528 105.606934,202.692657 
	C107.443275,207.131851 109.106529,211.277985 110.979706,215.723572 
z"/>
<path fill="#BF6B2A" opacity="1.000000" stroke="none" 
	d="
M83.811394,118.563011 
	C80.828064,117.049011 77.912697,115.069611 74.597023,112.592346 
	C74.101448,101.444084 74.006172,90.793678 73.933289,79.748367 
	C74.631836,77.878265 75.307991,76.403076 75.984146,74.927887 
	C79.710686,79.941025 83.437225,84.954170 87.515259,89.992783 
	C86.537613,99.378044 85.208481,108.737823 83.811394,118.563011 
z"/>
<path fill="#C9792D" opacity="1.000000" stroke="none" 
	d="
M138.996613,115.980881 
	C141.696945,115.967392 144.397293,115.953896 147.546783,115.963943 
	C148.224915,128.193008 155.035431,136.069962 164.955170,141.982330 
	C167.035217,143.222076 168.868057,144.876602 170.909546,146.663635 
	C165.652176,146.960022 160.300079,146.932770 154.458618,146.536713 
	C152.324890,143.956116 150.862045,141.576752 149.002991,139.563202 
	C142.827774,132.874786 138.695541,125.386330 138.996613,115.980881 
z"/>
<path fill="#BD722B" opacity="1.000000" stroke="none" 
	d="
M138.579788,115.959496 
	C138.695541,125.386330 142.827774,132.874786 149.002991,139.563202 
	C150.862045,141.576752 152.324890,143.956116 153.992599,146.513870 
	C150.643005,146.873352 147.270065,146.886871 143.422440,146.524811 
	C141.739273,144.046768 140.696121,141.826035 139.292343,139.863205 
	C134.445557,133.086227 130.361389,126.069832 130.965073,117.299026 
	C133.364365,116.845383 135.763672,116.391747 138.579788,115.959496 
z"/>
<path fill="#B96629" opacity="1.000000" stroke="none" 
	d="
M130.674133,117.298210 
	C130.361389,126.069832 134.445557,133.086227 139.292343,139.863205 
	C140.696121,141.826035 141.739273,144.046768 142.963867,146.495880 
	C140.581818,146.549988 138.183655,146.257492 135.369049,145.561172 
	C131.166946,138.180527 127.381310,131.203705 123.697815,123.949509 
	C124.566620,122.170570 125.333282,120.669006 126.099945,119.167442 
	C126.099945,119.167442 126.118301,119.089981 126.390381,119.144638 
	C127.133713,118.819473 127.604973,118.439651 128.076233,118.059837 
	C128.076233,118.059837 128.035126,118.007530 128.276810,117.947525 
	C128.693924,117.606636 128.869354,117.325745 129.044800,117.044861 
	C129.044800,117.044861 129.055038,117.225540 129.139557,117.263756 
	C129.610458,117.300446 129.996811,117.298920 130.674133,117.298210 
z"/>
<path fill="#B26028" opacity="1.000000" stroke="none" 
	d="
M123.595665,124.226875 
	C127.381310,131.203705 131.166946,138.180527 134.969788,145.507645 
	C134.551971,145.885101 134.116974,145.912277 133.355377,145.932312 
	C131.639404,145.272812 130.250046,144.620453 128.530746,143.941620 
	C126.987701,142.707703 125.774574,141.500275 124.283096,140.134430 
	C123.483940,139.123123 122.963135,138.270233 122.213051,137.223419 
	C121.658646,134.954361 121.333519,132.879227 120.986359,130.399445 
	C121.500198,128.525314 122.036057,127.055824 122.898972,125.094353 
	C123.349243,124.477211 123.472450,124.352043 123.595665,124.226875 
z"/>
<path fill="#BF6B2A" opacity="1.000000" stroke="none" 
	d="
M60.166336,184.993301 
	C69.945496,188.586426 79.688751,192.284103 89.540222,195.666656 
	C91.126015,196.211151 93.194252,195.350525 95.388763,195.068604 
	C98.942024,201.439087 102.146004,207.880432 105.349983,214.321777 
	C102.927277,214.504135 100.234543,215.468414 98.126259,214.740326 
	C85.635498,210.426682 73.280281,205.720520 60.459564,200.607269 
	C60.081871,195.043213 60.124104,190.018265 60.166336,184.993301 
z"/>
<path fill="#F5B55E" opacity="1.000000" stroke="none" 
	d="
M105.563713,214.598083 
	C102.146004,207.880432 98.942024,201.439087 95.518570,194.700455 
	C92.416374,187.426819 89.533653,180.450470 86.434906,173.207031 
	C84.234184,166.772430 82.212143,160.616486 80.297150,154.427399 
	C79.926430,153.229279 79.973846,151.901764 79.931717,150.306320 
	C81.297646,152.885941 82.578255,155.785522 83.819931,158.701675 
	C91.366455,176.425140 98.904572,194.152176 106.444115,211.878616 
	C107.350037,214.008545 108.247604,216.142029 109.084381,218.651947 
	C107.938957,217.644836 106.858200,216.259628 105.563713,214.598083 
z"/>
<path fill="#000000" opacity="1.000000" stroke="none" 
	d="
M60.103020,184.557205 
	C60.124104,190.018265 60.081871,195.043213 60.102806,200.530945 
	C60.052509,201.944504 59.939049,202.895294 59.825592,203.846069 
	C59.543255,203.858490 59.260921,203.870911 58.978584,203.883316 
	C58.978584,200.222382 58.978584,196.561432 58.906319,192.443726 
	C58.834049,186.945572 58.834049,181.904190 58.834049,176.862808 
	C59.235931,176.862244 59.637817,176.861679 60.039700,176.861115 
	C60.039700,179.281113 60.039700,181.701111 60.103020,184.557205 
z"/>
<path fill="#B6642A" opacity="1.000000" stroke="none" 
	d="
M111.240723,218.787781 
	C112.260292,221.158325 113.099388,223.691254 113.927925,226.621613 
	C112.942261,225.571945 111.967155,224.124847 110.997238,221.966644 
	C110.903816,220.598007 110.805206,219.940491 110.706589,219.282959 
	C110.706589,219.282959 111.060234,218.950180 111.240723,218.787781 
z"/>
<path fill="#F5B55E" opacity="1.000000" stroke="none" 
	d="
M110.427017,219.165161 
	C110.805206,219.940491 110.903816,220.598007 110.987885,221.589111 
	C110.313568,221.153427 109.653801,220.384171 108.986160,219.295197 
	C109.368019,218.999466 109.757736,219.023422 110.427017,219.165161 
z"/>
<path fill="#DC8430" opacity="1.000000" stroke="none" 
	d="
M75.984016,74.562424 
	C75.307991,76.403076 74.631836,77.878265 73.592041,79.849792 
	C72.515877,83.229248 71.803368,86.112350 71.090858,88.995468 
	C66.686317,88.380669 62.281784,87.765869 57.453854,86.609444 
	C57.075218,70.381195 57.119976,54.694565 57.164730,39.007935 
	C63.242661,40.913883 69.316353,42.833534 75.401451,44.716309 
	C76.956108,45.197323 78.546883,45.561600 80.477020,46.348202 
	C79.570450,50.301247 77.988548,53.811855 77.138840,57.491543 
	C76.352859,60.895279 76.350861,64.480049 76.003609,67.985100 
	C75.997040,70.055717 75.990463,72.126343 75.984016,74.562424 
z"/>
<path fill="#D07A2E" opacity="1.000000" stroke="none" 
	d="
M77.986015,148.060532 
	C77.000710,150.509064 75.576729,151.149857 72.928741,150.051407 
	C68.351204,148.152542 63.592854,146.689575 58.472145,144.553864 
	C58.077766,136.373550 58.121597,128.683105 58.165428,120.992668 
	C60.668663,121.611908 63.145508,122.398201 65.683235,122.799088 
	C67.825638,123.137520 70.038658,123.028900 72.601509,123.050644 
	C72.982597,122.983147 73.005363,123.003532 73.000656,123.401627 
	C74.659294,131.886658 76.322655,139.973602 77.986015,148.060532 
z"/>
<path fill="#E5AA5B" opacity="1.000000" stroke="none" 
	d="
M71.095154,89.445679 
	C71.803368,86.112350 72.515877,83.229248 73.569641,80.244705 
	C74.006172,90.793678 74.101448,101.444084 74.261719,112.562805 
	C74.538147,115.416428 74.749580,117.801720 74.594238,120.609772 
	C73.988716,121.042130 73.749977,121.051743 73.380051,121.101105 
	C73.248878,121.140846 72.982239,121.204521 72.982239,121.204521 
	C72.654465,117.426819 72.326683,113.649109 72.238289,109.117561 
	C72.823639,105.071938 74.541313,101.577209 71.070129,98.850182 
	C71.079903,95.865417 71.089676,92.880661 71.095154,89.445679 
z"/>
<path fill="#000000" opacity="1.000000" stroke="none" 
	d="
M57.092308,38.558685 
	C57.119976,54.694565 57.075218,70.381195 57.097935,86.531960 
	C57.022472,89.079208 56.879532,91.162315 56.736595,93.245422 
	C56.480900,93.234428 56.225208,93.223434 55.969517,93.212448 
	C55.969517,73.785774 55.969517,54.359097 55.902191,34.468277 
	C55.984425,32.251320 56.133980,30.498507 56.283539,28.745693 
	C56.528988,28.760738 56.774441,28.775784 57.019890,28.790827 
	C57.019890,31.897030 57.019890,35.003235 57.092308,38.558685 
z"/>
<path fill="#000000" opacity="1.000000" stroke="none" 
	d="
M58.100334,120.528481 
	C58.121597,128.683105 58.077766,136.373550 58.097836,144.528336 
	C58.016502,147.064026 57.871269,149.135361 57.726036,151.206696 
	C57.480350,151.196350 57.234669,151.185989 56.988983,151.175629 
	C56.988983,144.754990 56.988983,138.334335 56.913593,131.449524 
	C56.838203,119.924652 56.838203,108.863960 56.838203,97.803261 
	C57.237217,97.802925 57.636227,97.802589 58.035240,97.802254 
	C58.035240,105.222931 58.035240,112.643616 58.100334,120.528481 
z"/>
<path fill="#DC8430" opacity="1.000000" stroke="none" 
	d="
M71.048653,99.309280 
	C74.541313,101.577209 72.823639,105.071938 72.225533,108.676727 
	C71.657990,105.915955 71.342583,102.842171 71.048653,99.309280 
z"/>
<path fill="#D07A2E" opacity="1.000000" stroke="none" 
	d="
M72.987244,121.496529 
	C72.982239,121.204521 73.248878,121.140846 73.449554,121.370277 
	C73.435280,122.067650 73.220322,122.535591 73.005363,123.003532 
	C73.005363,123.003532 72.982597,122.983147 72.970795,122.971642 
	C72.970085,122.569603 72.981163,122.179070 72.987244,121.496529 
z"/>
<path fill="#FBBA5E" opacity="1.000000" stroke="none" 
	d="
M73.000656,123.401627 
	C73.220322,122.535591 73.435280,122.067650 73.580734,121.330536 
	C73.749977,121.051743 73.988716,121.042130 74.585403,121.018799 
	C76.741035,130.389603 78.538727,139.774139 80.187424,149.576294 
	C79.503395,149.470078 78.968384,148.946198 78.209686,148.241425 
	C76.322655,139.973602 74.659294,131.886658 73.000656,123.401627 
z"/>
<path fill="#DEA55A" opacity="1.000000" stroke="none" 
	d="
M89.987946,148.429382 
	C91.248810,146.821457 92.835701,145.840607 93.735558,144.423492 
	C100.371475,133.973038 108.729576,125.363914 119.818871,119.652237 
	C121.188217,118.946945 122.896744,118.900185 124.424759,118.944763 
	C123.601448,121.225784 122.801483,123.110313 122.001518,124.994843 
	C116.418190,129.197296 109.691208,132.507629 105.540985,137.827972 
	C100.351830,144.480179 97.281487,152.785202 92.921295,160.510971 
	C92.007179,160.101059 91.468231,159.556900 90.929283,159.012741 
	C90.929283,159.012741 90.979614,159.083694 90.949059,159.114685 
	C90.610954,155.715271 90.303406,152.284866 89.987946,148.429382 
z"/>
<path fill="#F5B55E" opacity="1.000000" stroke="none" 
	d="
M90.902237,159.418304 
	C91.468231,159.556900 92.007179,160.101059 92.764236,160.834961 
	C93.326469,163.746857 93.670570,166.469040 94.022957,169.610336 
	C92.979225,166.627609 91.927200,163.225739 90.902237,159.418304 
z"/>
<path fill="#ECAF5D" opacity="1.000000" stroke="none" 
	d="
M122.210800,124.988007 
	C122.801483,123.110313 123.601448,121.225784 124.686447,119.145798 
	C125.160225,118.981606 125.348976,119.012886 125.818832,119.105804 
	C125.333282,120.669006 124.566620,122.170570 123.697815,123.949509 
	C123.472450,124.352043 123.349243,124.477211 123.032196,124.781326 
	C122.838356,124.960274 122.420090,124.981178 122.210800,124.988007 
z"/>
<path fill="#F5B55E" opacity="1.000000" stroke="none" 
	d="
M76.223770,67.687958 
	C76.350861,64.480049 76.352859,60.895279 77.138840,57.491543 
	C77.988548,53.811855 79.570450,50.301247 80.866676,46.349297 
	C82.864716,41.879887 84.829048,37.778069 86.930321,33.353092 
	C87.067261,33.029934 87.539711,32.988243 87.776756,32.981945 
	C87.407852,35.053417 86.801903,37.131187 86.086365,39.544685 
	C82.799156,49.050545 79.621544,58.220680 76.223770,67.687958 
z"/>
<path fill="#ECAF5D" opacity="1.000000" stroke="none" 
	d="
M127.782692,118.093925 
	C127.604973,118.439651 127.133713,118.819473 126.352081,119.133774 
	C126.524193,118.754845 127.006668,118.441429 127.782692,118.093925 
z"/>
<path fill="#ECAF5D" opacity="1.000000" stroke="none" 
	d="
M128.842926,117.182587 
	C128.869354,117.325745 128.693924,117.606636 128.271072,117.980286 
	C128.182632,117.783730 128.388443,117.532822 128.842926,117.182587 
z"/>
<path fill="#F5B55E" opacity="1.000000" stroke="none" 
	d="
M90.721794,28.138659 
	C90.226814,29.604698 89.441536,31.237768 88.316086,32.944656 
	C88.794441,31.447550 89.612968,29.876619 90.721794,28.138659 
z"/>
<path fill="#F5B55E" opacity="1.000000" stroke="none" 
	d="
M92.728226,25.119455 
	C92.555458,25.940058 92.098732,26.908493 91.309235,27.947945 
	C91.465721,27.101738 91.954994,26.184513 92.728226,25.119455 
z"/>
<path fill="#F5B55E" opacity="1.000000" stroke="none" 
	d="
M94.754852,22.115372 
	C94.552475,22.930412 94.096558,23.898149 93.309586,24.942848 
	C92.962517,24.845331 92.946495,24.670853 92.897156,24.235476 
	C93.409660,23.405739 93.955490,22.836905 94.754852,22.115372 
z"/>
<path fill="#F5B55E" opacity="1.000000" stroke="none" 
	d="
M95.761337,21.054005 
	C95.832642,21.265556 95.654121,21.562986 95.219643,21.940174 
	C95.146294,21.726582 95.328903,21.433233 95.761337,21.054005 
z"/>
<path fill="#F5B55E" opacity="1.000000" stroke="none" 
	d="
M96.769394,20.055481 
	C96.826736,20.250746 96.635147,20.531534 96.206421,20.913059 
	C96.153023,20.722864 96.336739,20.431936 96.769394,20.055481 
z"/>
</svg>