<?xml version="1.0" standalone="no"?>
<!DOCTYPE svg PUBLIC "-//W3C//DTD SVG 20010904//EN"
 "http://www.w3.org/TR/2001/REC-SVG-20010904/DTD/svg10.dtd">
<svg version="1.0" xmlns="http://www.w3.org/2000/svg"
 width="400.000000pt" height="400.000000pt" viewBox="0 0 400.000000 400.000000"
 preserveAspectRatio="xMidYMid meet">

<g transform="translate(0.000000,400.000000) scale(0.100000,-0.100000)"
fill="#000000" stroke="none">
<path d="M1573 3382 c-30 -8 -53 -21 -53 -28 0 -8 -5 -14 -11 -14 -5 0 -7 5
-4 10 8 13 -5 13 -25 0 -10 -6 -11 -10 -2 -10 6 0 12 -5 12 -11 0 -5 -4 -8 -8
-5 -4 2 -14 1 -22 -5 -12 -7 -10 -9 7 -9 12 0 27 -2 35 -3 7 -2 10 -2 6 0 -5
3 -8 9 -8 14 0 16 21 9 41 -13 l19 -23 -6 28 c-4 17 -2 27 5 27 6 0 11 -7 11
-16 0 -12 5 -10 19 7 12 15 16 28 10 35 -6 7 -1 10 13 10 11 -1 23 5 25 12 5
14 3 14 -64 -6z"/>
<path d="M1411 3321 c-11 -7 -9 -10 8 -16 12 -3 19 -9 17 -13 -2 -4 17 -8 43
-9 50 -1 48 0 -18 17 -33 9 -41 14 -30 21 8 5 10 9 4 9 -5 0 -16 -4 -24 -9z"/>
<path d="M1376 3305 c10 -8 23 -15 28 -15 6 0 1 7 -10 15 -10 8 -23 15 -28 15
-6 0 -1 -7 10 -15z"/>
<path d="M1525 3269 c-4 -6 -5 -12 -2 -15 2 -3 7 2 10 11 7 17 1 20 -8 4z"/>
<path d="M1460 3249 c0 -5 5 -7 10 -4 6 3 10 8 10 11 0 2 -4 4 -10 4 -5 0 -10
-5 -10 -11z"/>
<path d="M2853 3204 c0 -17 2 -22 7 -13 5 6 6 18 3 26 -8 19 -10 16 -10 -13z"/>
<path d="M1460 3171 c0 -6 4 -13 10 -16 6 -3 7 1 4 9 -7 18 -14 21 -14 7z"/>
<path d="M1466 3085 c-9 -26 -7 -32 5 -12 6 10 9 21 6 23 -2 3 -7 -2 -11 -11z"/>
<path d="M2891 3074 c0 -11 3 -14 6 -6 3 7 2 16 -1 19 -3 4 -6 -2 -5 -13z"/>
<path d="M1431 2974 c0 -11 3 -14 6 -6 3 7 2 16 -1 19 -3 4 -6 -2 -5 -13z"/>
<path d="M1414 2948 c3 -10 3 -25 -1 -34 -5 -13 -8 -13 -15 -2 -7 9 -8 7 -2
-7 4 -11 6 -37 5 -57 -1 -20 3 -39 8 -42 6 -4 8 13 6 41 -1 27 1 56 6 66 7 11
6 23 -1 35 -11 16 -11 16 -6 0z"/>
<path d="M1427 2897 c-3 -8 -1 -20 4 -28 6 -10 9 -7 9 14 0 29 -5 35 -13 14z"/>
<path d="M1374 2827 c5 -19 3 -26 -4 -22 -9 6 -11 -4 -14 -62 -1 -10 -4 -20
-8 -23 -24 -19 -32 -513 -9 -640 38 -221 103 -459 166 -610 15 -36 42 -103 62
-150 38 -94 136 -292 205 -415 70 -125 112 -195 114 -192 2 1 -14 36 -34 77
-209 426 -369 911 -402 1225 -11 99 -9 291 3 325 3 8 11 42 17 75 11 58 67
183 96 216 8 8 14 18 14 22 0 9 -47 -39 -53 -55 -3 -8 -6 -6 -6 6 -1 10 6 24
15 30 14 11 14 13 0 25 -14 12 -16 12 -10 -3 5 -12 0 -16 -19 -16 -26 0 -37
16 -37 55 0 13 -6 26 -12 28 -10 4 -10 6 0 6 18 1 16 71 -3 71 -8 0 -15 5 -15
12 0 28 -15 -7 -21 -50 -6 -45 -6 -45 -8 -10 0 21 -10 52 -22 70 l-21 33 6
-28z m-33 -274 c-12 -20 -14 -14 -5 12 4 9 9 14 11 11 3 -2 0 -13 -6 -23z
m169 -1 c0 -5 -9 -17 -20 -27 -22 -20 -28 -4 -7 20 14 16 27 19 27 7z m-46
-87 c-4 -8 -8 -15 -10 -15 -2 0 -4 7 -4 15 0 8 4 15 10 15 5 0 7 -7 4 -15z"/>
<path d="M1531 2711 c-7 -5 -9 -11 -5 -14 5 -3 15 1 22 9 14 16 5 18 -17 5z"/>
<path d="M1575 2700 c-3 -5 -1 -10 4 -10 6 0 11 5 11 10 0 6 -2 10 -4 10 -3 0
-8 -4 -11 -10z"/>
<path d="M1595 2679 c-4 -6 -5 -12 -2 -15 2 -3 7 2 10 11 7 17 1 20 -8 4z"/>
<path d="M1550 2669 c0 -5 5 -7 10 -4 6 3 10 8 10 11 0 2 -4 4 -10 4 -5 0 -10
-5 -10 -11z"/>
<path d="M2031 2163 c-13 -3 -29 -9 -35 -14 -6 -5 -26 -20 -43 -35 -41 -32
-66 -108 -53 -155 17 -57 53 -98 109 -125 46 -22 68 -26 158 -27 77 -1 106 2
113 12 8 15 -17 51 -36 51 -17 0 -47 38 -59 73 -5 18 -17 32 -25 32 -21 0 -39
59 -39 128 -1 38 -5 57 -13 57 -7 0 -22 2 -33 4 -11 2 -31 2 -44 -1z"/>
<path d="M2328 1743 c7 -3 16 -2 19 1 4 3 -2 6 -13 5 -11 0 -14 -3 -6 -6z"/>
<path d="M1376 1718 c4 -13 7 -32 6 -43 -1 -15 1 -16 7 -6 5 8 5 26 -1 42 -12
34 -23 40 -12 7z"/>
<path d="M2418 1733 c7 -3 16 -2 19 1 4 3 -2 6 -13 5 -11 0 -14 -3 -6 -6z"/>
<path d="M2648 1733 c7 -3 16 -2 19 1 4 3 -2 6 -13 5 -11 0 -14 -3 -6 -6z"/>
<path d="M1173 1640 c0 -25 2 -35 4 -22 2 12 2 32 0 45 -2 12 -4 2 -4 -23z"/>
<path d="M2159 1678 c-5 -19 -8 -50 -4 -46 7 7 15 48 9 48 -2 0 -4 -1 -5 -2z"/>
<path d="M2080 1667 c0 -2 15 -14 33 -27 20 -15 27 -17 18 -6 -13 16 -51 41
-51 33z"/>
<path d="M2188 1663 c7 -3 16 -2 19 1 4 3 -2 6 -13 5 -11 0 -14 -3 -6 -6z"/>
<path d="M1405 1639 c10 -35 23 -45 18 -15 -3 15 -10 29 -15 32 -6 4 -7 -2 -3
-17z"/>
<path d="M1191 1584 c0 -11 3 -14 6 -6 3 7 2 16 -1 19 -3 4 -6 -2 -5 -13z"/>
<path d="M2005 1589 c-4 -5 0 -18 9 -28 14 -16 14 -19 -2 -36 -9 -11 -5 -9 11
4 27 25 33 33 20 29 -5 -2 -8 2 -8 7 0 6 4 9 9 7 5 -2 4 4 -4 12 -15 19 -26
20 -35 5z m25 -3 c0 -3 -4 -8 -10 -11 -5 -3 -10 -1 -10 4 0 6 5 11 10 11 6 0
10 -2 10 -4z"/>
<path d="M1186 1528 c5 -37 -11 -55 -18 -20 -2 9 -4 -17 -4 -58 0 -54 1 -65 6
-40 4 19 5 -19 2 -85 -4 -111 10 -473 24 -607 6 -56 8 -58 43 -67 74 -20 537
-61 681 -61 23 0 22 16 -3 44 -10 11 -15 26 -12 34 3 8 0 10 -7 6 -8 -5 -9 -1
-4 12 4 10 4 15 0 12 -8 -9 -54 57 -106 151 -20 36 -42 65 -47 64 -6 -2 -7 5
-4 14 5 13 2 15 -12 10 -15 -6 -16 -5 -5 8 8 9 9 15 2 15 -6 0 -15 -8 -21 -17
-9 -16 -10 -16 -8 4 0 12 4 21 7 21 18 -2 18 6 -1 42 -12 22 -26 37 -32 33 -5
-3 -7 -1 -3 5 3 6 -5 32 -20 59 -14 26 -23 37 -20 24 3 -14 1 -20 -4 -15 -5 5
-11 25 -13 44 -6 46 -17 71 -28 64 -5 -3 -9 7 -9 21 0 21 -4 26 -16 21 -13 -5
-15 -1 -11 21 3 14 1 36 -5 47 -11 25 -58 51 -58 33 0 -7 -5 -5 -10 3 -9 13
-11 13 -21 0 -9 -12 -10 -12 -5 4 4 10 4 27 1 37 -5 16 -17 19 -80 19 -49 0
-75 -4 -78 -12 -3 -7 -6 -4 -6 8 -1 19 4 21 74 19 56 -1 75 2 75 12 0 9 -18
13 -67 13 -38 0 -84 4 -104 9 -42 10 -54 5 -63 -24 -3 -11 -4 -2 -2 20 2 22 0
51 -5 65 -7 20 -7 17 -3 -12z m1 -190 c-3 -8 -6 -5 -6 6 -1 11 2 17 5 13 3 -3
4 -12 1 -19z m353 -33 c0 -5 -5 -3 -10 5 -5 8 -10 20 -10 25 0 6 5 3 10 -5 5
-8 10 -19 10 -25z"/>
<path d="M1200 1541 c0 -6 5 -13 10 -16 6 -3 10 1 10 9 0 9 -4 16 -10 16 -5 0
-10 -4 -10 -9z"/>
<path d="M1440 1511 c0 -5 7 -11 14 -14 10 -4 13 -1 9 9 -6 15 -23 19 -23 5z"/>
<path d="M1473 1432 c9 -10 17 -23 17 -29 0 -6 7 -17 17 -24 9 -8 14 -9 12 -4
-19 43 -34 65 -47 70 -13 5 -13 3 1 -13z"/>
<path d="M1450 1424 c0 -5 7 -19 15 -30 8 -10 15 -14 15 -8 0 5 -7 19 -15 30
-8 10 -15 14 -15 8z"/>
</g>
</svg>
