<svg id="Layer_1" data-name="Layer 1" xmlns="http://www.w3.org/2000/svg" xmlns:xlink="http://www.w3.org/1999/xlink" width="800" height="214" viewBox="0 0 800 214"><defs><style>.cls-1{fill:url(#linear-gradient);}.cls-2{fill:url(#linear-gradient-2);}.cls-3{fill:url(#radial-gradient);}.cls-4{fill:url(#radial-gradient-2);}.cls-5{fill:#fdbc5f;}.cls-6{fill:url(#radial-gradient-3);}.cls-7{fill:none;}</style><linearGradient id="linear-gradient" x1="-280.69" y1="490" x2="-276.45" y2="486.73" gradientTransform="translate(4311.23 -25404.46) scale(15.28 52.84)" gradientUnits="userSpaceOnUse"><stop offset="0" stop-color="#a75726"/><stop offset="0" stop-color="#a75726"/><stop offset="0.28" stop-color="#c5702b"/><stop offset="0.52" stop-color="#d7802f"/><stop offset="0.69" stop-color="#de8530"/><stop offset="0.76" stop-color="#da832f"/><stop offset="0.84" stop-color="#ce7c2e"/><stop offset="0.91" stop-color="#b9702b"/><stop offset="0.99" stop-color="#9d5f26"/><stop offset="0.99" stop-color="#9a5e26"/></linearGradient><linearGradient id="linear-gradient-2" x1="-266.14" y1="492.77" x2="-215.16" y2="502.52" gradientTransform="translate(8989.07 -25404.47) scale(30.75 52.84)" xlink:href="#linear-gradient"/><radialGradient id="radial-gradient" cx="-287.18" cy="500.57" r="2.89" gradientTransform="translate(7882.37 -13130.49) scale(27.08)" gradientUnits="userSpaceOnUse"><stop offset="0.34" stop-color="#ab8052"/><stop offset="0.37" stop-color="#b18453"/><stop offset="0.65" stop-color="#daa259"/><stop offset="0.87" stop-color="#f4b55e"/><stop offset="1" stop-color="#fdbc5f"/></radialGradient><radialGradient id="radial-gradient-2" cx="-122.74" cy="559.31" r="32.75" gradientTransform="translate(2514.1 -4188.43) scale(8.26)" xlink:href="#radial-gradient"/><radialGradient id="radial-gradient-3" cx="-253.18" cy="552.69" r="3.31" gradientTransform="translate(2207.14 -4162.96) scale(8.23)" gradientUnits="userSpaceOnUse"><stop offset="0" stop-color="#de8530"/><stop offset="0.23" stop-color="#da832f"/><stop offset="0.45" stop-color="#ce7c2d"/><stop offset="0.68" stop-color="#ba702a"/><stop offset="0.9" stop-color="#9e6026"/><stop offset="1" stop-color="#8f5723"/></radialGradient></defs><title>fusion-360-logo-freelogovectors.net_</title><path class="cls-1" d="M30,325.41c0,18.32,1.07,117.51,4.29,152,4.3,3.24,44,4.32,44,4.32C15,383.63,46.1,336.19,62.21,314.63A276,276,0,0,0,30,325.41Z" transform="translate(0 -293)"/><path class="cls-2" d="M78.31,481.72C68.65,460.16,30,387.94,59,357.75c24.7-25.87,78.37-8.62,78.37-8.62S134.13,333,132,326.49a8.39,8.39,0,0,0-4.29-4.31,399.19,399.19,0,0,0-66.56-7.55c1.07,0-58,50.67,17.18,167.09Z" transform="translate(0 -293)"/><path class="cls-3" d="M52.54,368.53C35.38,404.11,78.31,481.72,78.31,482.8a220.09,220.09,0,0,1,0-37.73c1.07-11.86,2.14-21.56,17.17-25.87a299.42,299.42,0,0,1,38.65-5.38c-1.07-1.08-7.52-4.31-42.94-3.23-21.47,0-20.4-21.56-4.3-22.64A294.62,294.62,0,0,1,124.47,389h0s-20.4-3.24-34.36-6.47a14.5,14.5,0,0,1-13.94-15v-.08H52.54v1.08Z" transform="translate(0 -293)"/><path class="cls-4" d="M110.51,351.28c25.77,2.16,25.77-2.15,25.77-2.15S83.67,331.88,59,357.75a51,51,0,0,0-6.44,9.69l1.08,2.16H75.09l1.08-2.16c1.08-6.46,8.59-17.24,34.35-16.17Z" transform="translate(0 -293)"/><path class="cls-5" d="M78.31,481.72s-6.44-9.7-14-23.72a144.16,144.16,0,0,1-11.81-25.87,151.27,151.27,0,0,1-9.66-31.26,83.51,83.51,0,0,1-2.14-17.25V367.44a97.92,97.92,0,0,1,6.43-28,108.36,108.36,0,0,1,9.67-17.24,18.48,18.48,0,0,1,5.37-5.38,65.1,65.1,0,0,0-5.37,6.47,70.32,70.32,0,0,0-9.67,18.34,98.18,98.18,0,0,0-6.44,28v16.15A83.83,83.83,0,0,0,42.88,402a151.17,151.17,0,0,0,9.66,31.27,144.48,144.48,0,0,0,11.81,25.87,196.92,196.92,0,0,0,14,22.64Z" transform="translate(0 -293)"/><path class="cls-6" d="M123.39,389a303.87,303.87,0,0,0-37.57-1.07c-16.1,1.07-17.17,22.64,4.3,22.64,35.42,0,41.86,3.23,42.94,3.23h0Z" transform="translate(0 -293)"/><path class="cls-5" d="M137.35,350.21a110.07,110.07,0,0,0-24.69-4.32,102.89,102.89,0,0,0-25.77,0,40.89,40.89,0,0,0-25.76,11.86,38.81,38.81,0,0,0-11.81,25.88,90,90,0,0,0,1.07,24.79,185.55,185.55,0,0,0,6.45,23.72,34.35,34.35,0,0,1-2.15-6.47,131.34,131.34,0,0,1-4.29-17.25,179.36,179.36,0,0,1-2.15-25.87A38.77,38.77,0,0,1,60,356.68a60.48,60.48,0,0,1,26.84-11.86,101.87,101.87,0,0,1,25.76,0,154.14,154.14,0,0,1,24.69,5.37Z" transform="translate(0 -293)"/><path class="cls-5" d="M123.39,389s-14-1.07-27.91-1.07H85.82a12.19,12.19,0,0,0-8.59,3.22A7.58,7.58,0,0,0,74,398.71a7.58,7.58,0,0,1,3.22-7.55,12.14,12.14,0,0,1,8.59-3.23H96.56c14,0,26.83,1.07,26.83,1.07Z" transform="translate(0 -293)"/><path d="M207.82,354.67h23.35l-11.82-34.82Zm25.35,5.88H205.83L199,381h-7.72l22.95-66.41h10.32L248.21,381h-7.82l-7.22-20.49Zm78.28-45.92V383h-6.7l-.49-8.5a27.15,27.15,0,0,1-21.4,9.67c-15.41,0-22-10.35-22-23.16V314.63h7.59v46.71c0,9.38,4,16.9,15.9,16.9A22.11,22.11,0,0,0,304,367.1V314.63h7.5" transform="translate(0 -293)"/><polyline points="371.54 27.51 351.39 27.51 351.39 88.04 344.16 88.04 344.16 27.51 324.1 27.51 324.1 21.63 371.54 21.63 371.54 27.51"/><path d="M388.44,342.11V357.2c0,11.82,5.73,21.14,19.47,21.14s19.47-9.32,19.47-21.14V342.11c0-12.39-5.74-21.62-19.47-21.62C394.36,320.49,388.44,329.53,388.44,342.11Zm46.35.1V357c0,15.09-8.31,27.19-26.88,27.19S381,372.1,381,357v-14.8c0-15.86,8.39-27.58,26.88-27.58C426.59,314.63,434.79,326.65,434.79,342.21Zm59-1.2c0-12.71-7-20.59-20.88-20.59h-11.8v54.83h9.74c15.05,0,22.93-7.78,22.93-22.29Zm7.38.19v11.57c0,17.36-10.63,28.27-30.31,28.27H453.76V314.63h19.59C491.85,314.63,501.2,325.25,501.2,341.2Z" transform="translate(0 -293)"/><polyline points="527.05 27.42 527.05 50.95 552.94 50.95 552.94 56.83 527.05 56.83 527.05 82.25 554.96 82.25 554.96 88.04 520.17 88.04 520.17 21.63 554.96 21.63 554.96 27.42 527.05 27.42"/><path d="M567.61,364.51h7.27c.5,7.4,5.14,13.74,18.74,13.74s17-6.44,17-11.44V364.6c0-6.83-4.23-9.33-14.82-12.59l-10.18-3.16c-10.88-3.46-15.32-7.78-15.32-16v-2.12c0-7.21,6.44-16.15,23.57-16.15,16,0,23.79,8.26,24.3,18.93h-7.28c-.5-6.53-4.53-13.07-17-13.07-12.2,0-15.93,5.86-15.93,10.29v1.91c0,5,3.13,7.89,12.8,10.87L601,346.63c11.39,3.46,17.24,8,17.24,17.49v2.4c0,9-7,17.68-24.59,17.68-16.63,0-25.2-8-26-19.69M681.44,378.3l-.1,5.12a9.32,9.32,0,0,1-4.07.78c-4.56,0-7.24-1.58-10.62-6.39l-18.84-27.36L638,362.65v20.87h-7.14V314.63H638v38l30.45-38h8.14l-24.21,30.51,20.74,29.72a6.62,6.62,0,0,0,6.25,3.65,12,12,0,0,0,2.08-.2M694.55,321v-.56c0-1-.83-1.45-2-1.45h-1.4v3.5h1.27C693.69,322.45,694.55,322,694.55,321Zm1.77,5.31.19,0v.88a2,2,0,0,1-.7.1,1.46,1.46,0,0,1-1.4-.89l-1.54-2.89a2.43,2.43,0,0,1-.38,0h-1.3v3.65H690V318h2.68c1.94,0,3.18,1,3.18,2.41V321a2.28,2.28,0,0,1-1.72,2.23l1.41,2.6A.79.79,0,0,0,696.32,326.27Zm3-5.06a6.07,6.07,0,0,0-6.47-5.61l-.31,0a6.25,6.25,0,0,0-6.73,5.59v2.41a6.07,6.07,0,0,0,6.31,5.84l.42,0a5.94,5.94,0,0,0,6.7-5.09,4.37,4.37,0,0,0,.06-.72Zm1.14,0v2.36a7.06,7.06,0,0,1-7.19,6.91q-.37,0-.75-.06a7.2,7.2,0,0,1-7.86-6.46c0-.13,0-.25,0-.37v-2.36a7.37,7.37,0,0,1,7.92-6.62A7.14,7.14,0,0,1,700.4,321l0,.28Z" transform="translate(0 -293)"/><polyline points="213.1 132.03 213.1 151.76 237.77 151.76 237.77 160.97 213.1 160.97 213.1 189.24 200.77 189.24 200.77 122.83 241.88 122.83 241.88 132.03 213.1 132.03"/><path d="M305.13,415.83v68.31H293.94l-.71-6.35a26,26,0,0,1-19.09,7.61c-15.18,0-22.77-10-22.77-23.32V415.83H264v46.74c0,7.8,3.49,13.37,13.09,13.37a18.85,18.85,0,0,0,15.49-7.71v-52.4h12.59m12.65,45.42h12c.41,6.13,3.51,11.6,15.62,11.6,10.71,0,13.42-4.8,13.42-8.63v-2.11c0-5.65-3.2-7.47-13.31-10.54L335.4,448.5c-10.72-3.16-15.22-7.95-15.22-16.39V429.9c0-8.15,7.11-17.25,25.23-17.25,15.81,0,25.32,7.27,25.82,19.74h-11.8c-.5-5.75-4-10.73-13.92-10.73S333,426,333,429.7v1.64c0,3.73,2.6,6.13,11.21,8.62l10.12,3c11.52,3.47,17.21,8.63,17.21,18.12v2.49c0,10.16-8.71,18.7-26.13,18.7-17.22,0-26.73-8-27.63-21" transform="translate(0 -293)"/><polygon points="384.19 189.24 396.84 189.24 396.84 122.83 384.19 122.83 384.19 189.24"/><path d="M422,439.88v15.33c0,10.55,5.06,17.73,15.94,17.73s15.94-7.18,15.94-17.73V439.88c0-10.83-5.15-17.92-15.94-17.92S422,429.05,422,439.88Zm44.45.1v15c0,15.62-9.4,27.22-28.51,27.22-18.93,0-28.41-11.6-28.41-27.22V440c0-15.82,9.4-27.31,28.41-27.31S466.41,424.16,466.41,440Z" transform="translate(0 -293)"/><polyline points="535.98 122.83 535.98 189.24 521.23 189.24 493.44 137.82 493.44 189.24 482.22 189.24 482.22 122.83 497.48 122.83 524.67 172.63 524.67 122.83 535.98 122.83"/><path d="M573.93,463.45h11.78c.7,5,4.86,9.59,13.29,9.59,6.93,0,13.16-3.17,13.16-10.54v-2.4c0-8.34-8.81-10.25-14-10.25h-6.43v-8.63h6.43c5.15,0,11.39-1.82,11.39-8.63V430.3c0-6.14-4.86-8.44-11.09-8.44-7.82,0-11.39,4.32-11.78,9.49H574.93c.49-10.15,9.1-18.68,24.16-18.68,12.87,0,22.67,6.41,22.67,16.47v3.74c0,5.94-5.54,10.64-11.48,12,5.94.95,14.25,6,14.25,14.28v4.31c0,10.74-10.5,18.79-25,18.79-16.34,0-24.56-8.63-25.55-18.79m98.22-6.23a9.73,9.73,0,0,0-9-10.43,11.06,11.06,0,0,0-1.41,0,17.9,17.9,0,0,0-15.29,7.57v7.18c0,6.14,4.11,11.31,12.57,11.31,8.76,0,13.08-5.07,13.08-12.17Zm12.47-.38V461c0,10.92-8.75,21.28-25.76,21.28-16.09,0-24.84-9.78-24.84-21.47V436c0-10.92,6.94-23.28,25.15-23.28,14.18,0,23.64,6.41,24.14,17.91H671.54c-.1-5.65-5-8.72-12.17-8.72-8.75,0-12.88,4.79-12.88,13.42v9.39a20.88,20.88,0,0,1,17-7c13.29,0,21.13,9,21.13,19.17Zm47.68,2.21V436.14c0-9.68-5.06-14.37-12.51-14.37-8.22,0-13.19,4.69-13.19,14.37v22.91c0,9.2,5,13.8,13.19,13.8,7.45,0,12.51-4.61,12.51-13.8Zm-38.2-.1V436.33c0-14.76,9.33-23.66,25.7-23.66,15.77,0,24.9,8.9,24.9,23.66V459c0,14.28-9.13,23.29-24.9,23.29C703.43,482.24,694.1,473.23,694.1,459ZM770,415.83v9.49h-1.39V418L766,425.32h-1.56l-2.7-7.49v7.49h-1.29v-9.49h1.85l2.93,8.22,3-8.22Zm-19,0h7.51v1.23h-3v8.26H754.1v-8.26H751Z" transform="translate(0 -293)"/><rect class="cls-7" width="800" height="214"/></svg>