<svg version="1.1" id="Layer_1" xmlns="http://www.w3.org/2000/svg" xmlns:xlink="http://www.w3.org/1999/xlink" x="0px" y="0px"
	 width="100%" viewBox="0 0 300 300" enable-background="new 0 0 300 300" xml:space="preserve">
<path fill="#FEF7F1" opacity="1.000000" stroke="none" 
	d="
M1.000000,105.000000 
	C1.000000,70.000000 1.000000,35.500000 1.000000,1.000000 
	C101.000000,1.000000 201.000000,1.000000 301.000000,1.000000 
	C301.000000,101.000000 301.000000,201.000000 301.000000,301.000000 
	C201.000000,301.000000 101.000000,301.000000 1.000000,301.000000 
	C1.000000,235.833328 1.000000,170.666672 1.000000,105.000000 
M135.060791,12.996710 
	C118.706535,13.001159 102.352287,13.005608 85.061089,12.993088 
	C70.040024,12.999292 55.018955,13.005497 39.061047,12.990270 
	C31.783192,12.985201 24.502203,13.103274 17.228922,12.918334 
	C14.033222,12.837076 12.795111,13.841846 12.916396,17.142561 
	C13.134916,23.089417 13.002252,29.049175 12.988797,35.940083 
	C12.998144,52.294346 13.007491,68.648613 12.981601,85.939079 
	C12.994678,97.960411 13.007754,109.981743 12.979010,122.939018 
	C12.991323,141.954163 13.003636,160.969299 12.992792,180.923447 
	C12.990399,215.000931 13.057948,249.078751 12.898964,283.155518 
	C12.878608,287.518585 13.736265,289.308289 18.588024,289.134125 
	C29.379404,288.746796 40.193844,289.001892 51.936363,289.007385 
	C59.623981,289.003693 67.311600,289.000000 75.936600,289.005463 
	C87.290459,289.001953 98.644318,288.998474 110.935745,289.003418 
	C117.956963,289.001068 124.978172,288.998718 132.936783,289.001923 
	C142.290573,288.999634 151.644379,288.997375 161.935715,289.000305 
	C174.956329,288.998993 187.976944,288.997650 201.935181,288.999481 
	C219.248032,288.999207 236.563873,289.176849 253.871872,288.886780 
	C258.852600,288.803253 263.810669,287.371490 267.998779,286.685699 
	C267.998779,273.982269 267.691895,262.026337 268.080444,250.093002 
	C268.515686,236.725769 266.095337,223.205048 270.659912,210.010727 
	C271.099335,210.027863 271.538788,210.044998 272.473114,210.592026 
	C277.731506,212.457809 282.989929,214.323593 288.993744,216.453873 
	C288.993744,206.825760 288.993744,198.413513 289.010956,189.063919 
	C289.004944,180.709763 288.998932,172.355606 289.008972,163.063873 
	C289.004364,153.376328 288.999756,143.688766 289.007294,133.063812 
	C289.003235,121.709618 288.999176,110.355431 289.005310,98.063690 
	C289.002045,89.376099 288.998810,80.688507 289.003387,71.063431 
	C289.001038,61.709301 288.998688,52.355171 289.002045,42.063530 
	C289.001007,33.788727 288.884521,25.511518 289.056854,17.240328 
	C289.124023,14.017532 288.070404,12.881914 284.800995,12.942399 
	C275.536377,13.113794 266.266541,13.004375 256.061615,13.000982 
	C246.040726,13.002778 236.019821,13.004573 225.061783,13.000033 
	C216.374115,13.002270 207.686447,13.004506 198.061661,12.998768 
	C189.707367,13.002007 181.353073,13.005245 172.061798,12.996942 
	C160.040451,13.000979 148.019104,13.005017 135.060791,12.996710 
z"/>
<path fill="#FDF2E7" opacity="1.000000" stroke="none" 
	d="
M269.999908,210.004837 
	C266.095337,223.205048 268.515686,236.725769 268.080444,250.093002 
	C267.691895,262.026337 267.998779,273.982269 267.998779,286.685699 
	C263.810669,287.371490 258.852600,288.803253 253.871872,288.886780 
	C236.563873,289.176849 219.248032,288.999207 201.467255,288.559204 
	C200.702896,285.268646 200.406479,282.418427 200.549133,279.606689 
	C204.090302,279.411743 207.360184,279.724426 210.260330,278.833557 
	C216.716309,276.850372 219.725266,269.353241 217.309128,262.452332 
	C215.170166,256.343079 208.902603,253.735489 202.211609,256.145477 
	C201.226227,256.500397 200.195435,256.729218 199.103714,257.039673 
	C198.901245,256.170807 198.701752,255.696548 198.693710,255.219040 
	C198.637207,251.858475 198.429260,248.292862 202.411224,246.861908 
	C206.146484,245.519653 208.989609,246.473846 211.179810,250.202072 
	C211.815704,251.284500 214.665771,251.066162 216.500839,251.444122 
	C216.893448,250.820450 217.286041,250.196793 217.678650,249.573120 
	C215.836304,247.323547 214.420731,244.094269 212.048569,243.060883 
	C208.738586,241.618973 204.713867,241.817795 200.990784,240.908020 
	C200.530075,239.494553 200.210602,237.711075 199.595596,237.602585 
	C194.349991,236.677155 194.999161,232.767014 194.999695,229.131638 
	C195.000748,221.967712 194.973862,214.803650 195.008301,207.639893 
	C195.035629,201.955612 193.631927,195.631973 201.229767,193.157272 
	C201.586823,193.040955 201.754959,192.344574 202.443420,191.937622 
	C210.585770,193.311600 218.295746,194.666290 226.377197,196.072510 
	C229.896088,197.092590 233.055374,198.024292 236.188766,199.036270 
	C247.463867,202.677811 258.730255,206.346436 269.999908,210.004837 
M240.597595,241.590302 
	C231.396225,240.294022 225.224213,243.215591 223.364777,250.962097 
	C222.268982,255.527267 222.775711,260.555420 223.064163,265.345062 
	C223.236084,268.199799 223.915741,271.228455 225.185394,273.770172 
	C227.856674,279.117859 234.774796,281.276642 241.220428,279.284668 
	C246.779358,277.566711 249.357254,273.313965 249.064667,266.780853 
	C248.893890,262.967712 248.845673,259.129120 249.076767,255.322281 
	C249.515305,248.098267 247.741760,244.810654 240.597595,241.590302 
z"/>
<path fill="#F9D6B3" opacity="1.000000" stroke="none" 
	d="
M13.016838,85.002876 
	C13.007491,68.648613 12.998144,52.294346 13.351647,35.510086 
	C16.501499,37.578613 19.388783,39.975166 22.054611,42.596901 
	C27.592003,48.042686 33.118862,53.506916 38.450829,59.151741 
	C44.055058,65.084793 49.267845,71.391029 54.936783,77.258751 
	C63.490025,86.111916 72.254234,94.762939 81.010666,103.417007 
	C83.327843,105.707100 85.790642,107.963646 88.575356,109.555481 
	C89.042694,109.822632 91.500046,106.608543 93.099358,105.350479 
	C93.362747,106.824089 93.564667,107.950226 93.744186,109.509789 
	C93.643105,111.967285 93.564415,113.991348 93.142570,116.174194 
	C92.594788,123.814850 92.368332,131.296356 92.248856,138.779587 
	C92.242775,139.160629 93.157158,139.556351 93.764389,140.371460 
	C93.928726,142.864059 93.971649,144.930466 93.743286,147.255066 
	C93.771912,149.714157 94.071831,151.915039 94.447113,154.488800 
	C94.441231,157.247375 94.359978,159.633041 93.901596,162.017426 
	C91.807686,161.671158 89.504921,161.920502 88.461983,160.892151 
	C72.748886,145.398666 57.092873,129.843460 41.657295,114.073845 
	C32.889240,105.116058 24.565573,95.724075 15.975051,86.590385 
	C15.248119,85.817482 14.014868,85.520798 13.016838,85.002876 
z"/>
<path fill="#FBE4CD" opacity="1.000000" stroke="none" 
	d="
M50.998886,288.995117 
	C40.193844,289.001892 29.379404,288.746796 18.588024,289.134125 
	C13.736265,289.308289 12.878608,287.518585 12.898964,283.155518 
	C13.057948,249.078751 12.990399,215.000931 13.442307,180.456741 
	C26.265436,179.354843 38.639050,178.719650 51.008087,178.467773 
	C50.957432,179.500824 51.057117,180.203705 50.842617,180.792038 
	C48.821960,186.334381 48.870075,186.325089 54.705647,187.076553 
	C55.867359,187.226151 56.905823,188.332825 57.675739,189.141357 
	C50.939621,191.645172 50.939621,191.645172 52.585880,197.998627 
	C44.000114,197.515869 44.000031,197.515869 44.000011,206.001144 
	C43.999969,229.928482 44.068893,253.856186 43.935078,277.782776 
	C43.911610,281.979370 44.137199,285.403412 49.211975,286.339569 
	C49.945927,286.474945 50.409950,288.073608 50.998886,288.995117 
z"/>
<path fill="#FADABA" opacity="1.000000" stroke="none" 
	d="
M93.037888,105.002991 
	C91.500046,106.608543 89.042694,109.822632 88.575356,109.555481 
	C85.790642,107.963646 83.327843,105.707100 81.010666,103.417007 
	C72.254234,94.762939 63.490025,86.111916 54.936783,77.258751 
	C49.267845,71.391029 44.055058,65.084793 38.450829,59.151741 
	C33.118862,53.506916 27.592003,48.042686 22.054611,42.596901 
	C19.388783,39.975166 16.501499,37.578613 13.365389,35.041817 
	C13.002252,29.049175 13.134916,23.089417 12.916396,17.142561 
	C12.795111,13.841846 14.033222,12.837076 17.228922,12.918334 
	C24.502203,13.103274 31.783192,12.985201 39.530846,13.385201 
	C40.876957,15.856768 41.274300,18.379522 42.717083,19.928522 
	C47.535820,25.102009 52.754269,29.901320 57.771927,34.891891 
	C63.610500,40.698940 69.452354,46.504486 75.191017,52.409588 
	C79.331955,56.670631 83.306602,61.093281 87.099129,65.168465 
	C89.549469,62.848629 91.058388,61.420071 92.687317,60.447884 
	C92.862556,69.937759 92.917770,78.971268 92.704857,88.283051 
	C92.648613,91.043823 92.860497,93.526321 93.088959,96.458130 
	C93.082993,99.605949 93.060440,102.304474 93.037888,105.002991 
z"/>
<path fill="#FBE1C8" opacity="1.000000" stroke="none" 
	d="
M288.992920,164.001450 
	C288.998932,172.355606 289.004944,180.709763 288.659973,189.589371 
	C286.253784,192.095276 284.245300,194.357849 281.319489,191.335037 
	C278.788696,188.720337 276.291504,186.072510 273.730957,183.487335 
	C263.711243,173.371063 253.770218,163.174057 243.609451,153.201126 
	C235.505280,145.246765 227.097626,137.602127 218.912766,129.728455 
	C218.181564,129.025070 218.116531,127.640457 217.712753,126.583435 
	C215.919601,121.889183 213.010010,118.398865 207.468521,117.014381 
	C207.269058,118.647232 207.114532,119.912193 206.606018,121.181595 
	C205.108749,120.976860 203.965439,120.767685 202.941925,120.215652 
	C202.617722,118.325859 202.573273,116.451836 201.636856,115.308060 
	C200.204224,113.558151 197.995789,112.468170 196.397156,110.825150 
	C189.044815,103.268578 181.794510,95.612770 174.497406,88.002342 
	C171.797119,85.186104 167.973923,82.897591 170.056763,77.771187 
	C170.463257,77.376884 170.730621,77.189354 171.416626,76.969849 
	C179.888809,76.668892 187.949478,76.410088 196.080276,76.476639 
	C197.429535,76.605499 198.708633,76.408997 200.324585,76.156265 
	C201.109238,76.165955 201.557053,76.231888 202.001053,76.674042 
	C200.822647,78.535011 199.648087,80.019775 198.267929,81.764427 
	C200.004944,83.352074 202.061493,85.117302 203.985992,87.016342 
	C207.251587,90.238762 210.387573,93.592758 213.661331,96.806587 
	C219.543411,102.581032 225.568161,108.212051 231.381302,114.054237 
	C236.690369,119.389847 241.673981,125.051109 247.021118,130.346619 
	C257.564270,140.788010 268.580078,150.775391 278.716156,161.591782 
	C282.198273,165.307587 284.750061,166.579529 288.992920,164.001450 
z"/>
<path fill="#FCE6D1" opacity="1.000000" stroke="none" 
	d="
M172.998779,13.008484 
	C181.353073,13.005245 189.707367,13.002007 198.536514,13.373151 
	C201.250305,16.882235 203.118317,20.385180 205.796936,23.083387 
	C214.220184,31.568228 222.993286,39.704411 231.541824,48.066681 
	C237.055206,53.459946 242.416779,59.008560 247.838348,64.495506 
	C257.909729,74.688339 268.156189,84.717712 277.942017,95.177910 
	C281.228760,98.691162 284.156097,101.017097 288.995117,99.001236 
	C288.999176,110.355431 289.003235,121.709618 288.656189,133.567169 
	C284.264709,135.687927 282.143890,132.550018 279.955902,130.350449 
	C273.790314,124.152275 267.969666,117.612000 261.836761,111.380066 
	C251.872925,101.255363 241.812592,91.224281 231.691528,81.256706 
	C229.323669,78.924744 226.549438,77.005432 224.049896,74.608383 
	C224.220917,73.929855 224.304184,73.539223 224.588226,72.837128 
	C222.728348,63.210030 220.759186,53.872166 218.508423,44.602673 
	C218.170959,43.212852 216.722275,41.432102 215.430573,41.054920 
	C211.029236,39.769703 206.468231,39.031273 201.982269,38.051628 
	C201.996384,38.019131 201.926926,38.033119 201.796387,37.740242 
	C199.763123,37.842781 198.157227,33.508907 195.774612,37.105732 
	C195.312637,37.155628 195.130295,37.194958 194.616669,37.068741 
	C192.858658,36.536694 191.431931,36.170197 190.002502,35.428814 
	C189.320572,33.865891 188.933182,32.103668 187.913544,31.585432 
	C182.378510,28.772264 179.333267,23.563925 175.579224,19.089491 
	C174.225815,17.476341 173.831024,15.058894 172.998779,13.008484 
z"/>
<path fill="#FDEEE1" opacity="1.000000" stroke="none" 
	d="
M200.110046,279.568176 
	C200.406479,282.418427 200.702896,285.268646 200.998444,288.557617 
	C187.976944,288.997650 174.956329,288.998993 161.425781,288.646576 
	C159.402878,286.405701 157.540756,284.687927 156.511703,282.566101 
	C155.921738,281.349548 156.504944,279.416290 156.998825,277.953888 
	C157.091095,277.680634 159.276703,278.259552 160.477341,278.175323 
	C161.731644,278.087372 162.963089,277.673584 164.545166,277.587402 
	C168.243469,278.493683 171.604126,279.828064 174.958252,279.811890 
	C182.640457,279.774841 187.856003,274.393280 186.641663,267.547241 
	C186.103699,264.514496 183.580017,261.833984 181.887421,258.870453 
	C185.444733,256.745789 186.495316,253.019760 185.332626,248.513748 
	C184.111908,243.782837 180.425156,242.010300 176.124329,241.301300 
	C170.831970,240.428833 166.273087,242.038147 162.421631,245.675217 
	C160.462708,245.329773 158.691422,245.329773 156.425308,245.329773 
	C156.324768,244.422287 155.876617,243.120026 156.101471,241.946777 
	C157.271317,235.842545 157.905594,229.851456 155.258575,223.878143 
	C154.751846,222.734650 155.710297,221.014511 155.716156,219.559296 
	C155.750031,211.145325 155.992828,202.714157 155.508331,194.326752 
	C155.356018,191.689926 155.068604,189.991196 157.665405,188.595795 
	C159.287689,187.724045 160.567322,186.214600 162.437561,184.991272 
	C169.872009,185.926514 176.906998,186.647797 183.856003,187.861465 
	C189.957748,188.927155 195.963120,190.544601 202.011063,191.918350 
	C201.754959,192.344574 201.586823,193.040955 201.229767,193.157272 
	C193.631927,195.631973 195.035629,201.955612 195.008301,207.639893 
	C194.973862,214.803650 195.000748,221.967712 194.999695,229.131638 
	C194.999161,232.767014 194.349991,236.677155 199.595596,237.602585 
	C200.210602,237.711075 200.530075,239.494553 200.717499,241.085938 
	C194.519745,244.079147 191.914688,248.606339 191.979980,254.872955 
	C192.017853,258.506805 192.185150,262.154694 191.943008,265.772736 
	C191.504578,272.323792 194.026169,276.959106 200.110046,279.568176 
z"/>
<path fill="#F9D3AD" opacity="1.000000" stroke="none" 
	d="
M12.999220,85.470978 
	C14.014868,85.520798 15.248119,85.817482 15.975051,86.590385 
	C24.565573,95.724075 32.889240,105.116058 41.657295,114.073845 
	C57.092873,129.843460 72.748886,145.398666 88.461983,160.892151 
	C89.504921,161.920502 91.807686,161.671158 93.953049,162.318787 
	C94.345139,163.026184 94.308662,163.430939 93.935181,164.122559 
	C93.355179,168.656097 91.166084,173.080887 94.843071,177.313293 
	C94.909294,178.110550 94.880898,178.571960 94.404510,179.019806 
	C83.637291,178.668686 73.318069,178.331161 63.033005,177.653915 
	C63.063526,176.251175 63.520435,174.745270 62.987583,174.191147 
	C54.147007,164.997665 45.145634,155.959152 36.256886,146.811478 
	C29.209084,139.558395 20.369678,133.915405 15.996907,124.218185 
	C15.552581,123.232841 14.038490,122.729881 13.020832,122.003075 
	C13.007754,109.981743 12.994678,97.960411 12.999220,85.470978 
z"/>
<path fill="#FBE4CC" opacity="1.000000" stroke="none" 
	d="
M223.962173,74.896271 
	C226.549438,77.005432 229.323669,78.924744 231.691528,81.256706 
	C241.812592,91.224281 251.872925,101.255363 261.836761,111.380066 
	C267.969666,117.612000 273.790314,124.152275 279.955902,130.350449 
	C282.143890,132.550018 284.264709,135.687927 288.650085,134.035873 
	C288.999756,143.688766 289.004364,153.376328 289.000916,163.532654 
	C284.750061,166.579529 282.198273,165.307587 278.716156,161.591782 
	C268.580078,150.775391 257.564270,140.788010 247.021118,130.346619 
	C241.673981,125.051109 236.690369,119.389847 231.381302,114.054237 
	C225.568161,108.212051 219.543411,102.581032 213.661331,96.806587 
	C210.387573,93.592758 207.251587,90.238762 203.985992,87.016342 
	C202.061493,85.117302 200.004944,83.352074 198.267929,81.764427 
	C199.648087,80.019775 200.822647,78.535011 202.454376,76.602173 
	C206.271439,76.191193 209.631363,76.228287 213.045380,76.533302 
	C213.735077,76.591644 214.370651,76.382072 215.422028,76.108658 
	C218.545944,75.661957 221.254059,75.279114 223.962173,74.896271 
z"/>
<path fill="#FCE7D5" opacity="1.000000" stroke="none" 
	d="
M109.998177,288.994965 
	C98.644318,288.998474 87.290459,289.001953 75.428535,288.648804 
	C74.245964,287.375946 73.748466,285.923248 72.867577,285.632660 
	C67.968094,284.016266 67.887337,280.343292 67.931549,276.081970 
	C68.100815,259.767059 67.971489,243.449265 68.024971,227.132782 
	C68.035202,224.010880 67.653763,220.565384 68.860611,217.908554 
	C69.445480,216.620972 73.288696,216.817551 75.652817,216.323456 
	C75.788177,216.295166 75.888046,216.097076 76.352173,216.022171 
	C77.403267,216.484146 78.128441,216.869492 78.806587,217.324860 
	C85.108368,221.556335 91.402054,225.799820 98.006142,230.269394 
	C101.366699,231.323425 104.419205,232.147903 107.357056,233.400055 
	C103.396851,238.226074 103.949615,243.563400 103.986649,248.817032 
	C104.039215,256.275757 103.964638,263.735321 104.010757,271.194122 
	C104.050407,277.607697 102.492264,284.597900 109.911095,288.518646 
	C109.999367,288.565308 109.971718,288.831329 109.998177,288.994965 
z"/>
<path fill="#FCECDC" opacity="1.000000" stroke="none" 
	d="
M164.204529,277.402222 
	C162.963089,277.673584 161.731644,278.087372 160.477341,278.175323 
	C159.276703,278.259552 157.091095,277.680634 156.998825,277.953888 
	C156.504944,279.416290 155.921738,281.349548 156.511703,282.566101 
	C157.540756,284.687927 159.402878,286.405701 160.957001,288.643982 
	C151.644379,288.997375 142.290573,288.999634 132.429047,288.648804 
	C130.823105,287.127411 129.603806,286.048279 128.659531,284.766541 
	C127.641708,283.385010 126.024002,281.742676 126.140572,280.336151 
	C127.389275,265.269623 122.734009,249.820129 129.319092,235.076691 
	C130.101578,235.125809 130.546402,235.183929 131.023132,235.493668 
	C131.754150,235.808319 132.453232,235.871368 133.434357,236.173615 
	C136.179337,236.027969 138.642303,235.643143 141.556152,235.260223 
	C144.731140,235.363251 147.455246,235.464371 150.470673,235.724609 
	C151.456100,234.881638 152.771393,233.861771 152.743347,232.880280 
	C152.563141,226.571899 152.088699,220.271927 151.784119,213.537292 
	C151.780151,211.063782 151.702957,209.022202 151.709991,206.568710 
	C151.705841,204.762115 151.617447,203.367416 151.645294,201.559845 
	C151.771225,199.429703 151.780914,197.712402 151.769257,195.665924 
	C151.519379,194.284012 151.290833,193.231323 151.372559,191.933594 
	C152.169891,189.135162 152.656937,186.581741 153.573761,184.019180 
	C156.669266,184.337112 159.334991,184.664200 162.000702,184.991302 
	C160.567322,186.214600 159.287689,187.724045 157.665405,188.595795 
	C155.068604,189.991196 155.356018,191.689926 155.508331,194.326752 
	C155.992828,202.714157 155.750031,211.145325 155.716156,219.559296 
	C155.710297,221.014511 154.751846,222.734650 155.258575,223.878143 
	C157.905594,229.851456 157.271317,235.842545 156.101471,241.946777 
	C155.876617,243.120026 156.324768,244.422287 156.425308,245.329773 
	C158.691422,245.329773 160.462708,245.329773 162.337158,245.976562 
	C162.119766,247.957672 161.799194,249.292023 161.478638,250.626373 
	C161.898941,251.033997 162.319244,251.441620 162.739548,251.849243 
	C164.736404,250.680771 166.615631,249.168610 168.761108,248.434402 
	C171.216431,247.594147 174.205383,246.569504 176.390396,247.310944 
	C177.790695,247.786102 179.015564,251.447723 178.697144,253.418945 
	C178.469070,254.830902 175.536163,255.784012 173.843094,256.988281 
	C172.528854,257.923096 171.265701,258.929718 169.979858,259.904419 
	C171.258774,260.778778 172.431992,262.106720 173.838287,262.434418 
	C176.899460,263.147797 180.245758,263.749817 179.990417,267.574280 
	C179.840210,269.824005 178.499756,272.778229 176.725311,273.959473 
	C173.750900,275.939575 169.929321,275.400970 167.870773,272.216309 
	C165.884064,269.142792 163.716385,268.965363 159.798370,270.164490 
	C161.405334,272.804138 162.804932,275.103180 164.204529,277.402222 
z"/>
<path fill="#FCE8D5" opacity="1.000000" stroke="none" 
	d="
M289.000214,98.532463 
	C284.156097,101.017097 281.228760,98.691162 277.942017,95.177910 
	C268.156189,84.717712 257.909729,74.688339 247.838348,64.495506 
	C242.416779,59.008560 237.055206,53.459946 231.541824,48.066681 
	C222.993286,39.704411 214.220184,31.568228 205.796936,23.083387 
	C203.118317,20.385180 201.250305,16.882235 199.005066,13.377138 
	C207.686447,13.004506 216.374115,13.002270 225.568527,13.350216 
	C228.152222,16.656340 229.818054,20.046991 232.390076,22.479437 
	C238.074020,27.854919 244.580338,32.383755 250.086899,37.918831 
	C259.687592,47.569248 269.029938,57.506824 277.968414,67.770081 
	C281.213867,71.496559 284.297699,73.226082 288.995575,72.000916 
	C288.998810,80.688507 289.002045,89.376099 289.000214,98.532463 
z"/>
<path fill="#FCE6D1" opacity="1.000000" stroke="none" 
	d="
M76.004440,215.978027 
	C75.888046,216.097076 75.788177,216.295166 75.652817,216.323456 
	C73.288696,216.817551 69.445480,216.620972 68.860611,217.908554 
	C67.653763,220.565384 68.035202,224.010880 68.024971,227.132782 
	C67.971489,243.449265 68.100815,259.767059 67.931549,276.081970 
	C67.887337,280.343292 67.968094,284.016266 72.867577,285.632660 
	C73.748466,285.923248 74.245964,287.375946 74.959846,288.644226 
	C67.311600,289.000000 59.623981,289.003693 51.467625,289.001251 
	C50.409950,288.073608 49.945927,286.474945 49.211975,286.339569 
	C44.137199,285.403412 43.911610,281.979370 43.935078,277.782776 
	C44.068893,253.856186 43.999969,229.928482 44.000011,206.001144 
	C44.000031,197.515869 44.000114,197.515869 52.896507,198.136765 
	C59.749454,202.849213 65.875031,207.423996 72.183838,212.256561 
	C73.579529,213.668900 74.791985,214.823471 76.004440,215.978027 
z"/>
<path fill="#FBDFC5" opacity="1.000000" stroke="none" 
	d="
M206.960007,121.177162 
	C207.114532,119.912193 207.269058,118.647232 207.468521,117.014381 
	C213.010010,118.398865 215.919601,121.889183 217.712753,126.583435 
	C218.116531,127.640457 218.181564,129.025070 218.912766,129.728455 
	C227.097626,137.602127 235.505280,145.246765 243.609451,153.201126 
	C253.770218,163.174057 263.711243,173.371063 273.730957,183.487335 
	C276.291504,186.072510 278.788696,188.720337 281.319489,191.335037 
	C284.245300,194.357849 286.253784,192.095276 288.651367,190.058044 
	C288.993744,198.413513 288.993744,206.825760 288.993744,216.453873 
	C282.989929,214.323593 277.731506,212.457809 272.228577,209.951569 
	C271.009613,207.885559 270.168091,206.341202 269.027130,205.064499 
	C267.601624,203.469452 265.402832,202.372726 264.454987,200.576828 
	C260.250336,192.610214 252.727386,187.916626 246.713226,181.729294 
	C237.571747,172.324570 225.854156,164.993057 221.430298,151.593185 
	C221.331390,151.293564 220.559708,151.216049 220.053375,150.664490 
	C219.242264,148.531723 218.479614,146.769363 217.739990,144.647659 
	C216.515381,141.858337 215.267776,139.428375 214.090332,136.601074 
	C212.281418,130.945190 212.241516,124.805328 206.960007,121.177162 
z"/>
<path fill="#FADDC1" opacity="1.000000" stroke="none" 
	d="
M92.567307,59.991516 
	C91.058388,61.420071 89.549469,62.848629 87.099129,65.168465 
	C83.306602,61.093281 79.331955,56.670631 75.191017,52.409588 
	C69.452354,46.504486 63.610500,40.698940 57.771927,34.891891 
	C52.754269,29.901320 47.535820,25.102009 42.717083,19.928522 
	C41.274300,18.379522 40.876957,15.856768 39.999268,13.395918 
	C55.018955,13.005497 70.040024,12.999292 85.530998,13.391235 
	C87.865509,17.119804 89.179062,20.970238 91.719795,23.662596 
	C95.855331,28.044930 100.833328,31.625792 105.322105,35.692448 
	C105.716637,36.049881 105.124512,37.496387 104.724876,38.602562 
	C102.486504,39.772911 100.513916,40.777752 98.284836,41.780907 
	C97.626007,42.065281 97.223663,42.351337 96.456772,42.684547 
	C95.380714,42.914440 94.669212,43.097187 93.749008,43.265530 
	C93.238846,43.403431 93.141243,43.639950 93.143250,44.413383 
	C93.059219,48.575142 93.079475,52.284199 93.018105,56.389874 
	C92.813431,57.854832 92.690369,58.923176 92.567307,59.991516 
z"/>
<path fill="#FADEC1" opacity="1.000000" stroke="none" 
	d="
M220.101868,151.034927 
	C220.559708,151.216049 221.331390,151.293564 221.430298,151.593185 
	C225.854156,164.993057 237.571747,172.324570 246.713226,181.729294 
	C252.727386,187.916626 260.250336,192.610214 264.454987,200.576828 
	C265.402832,202.372726 267.601624,203.469452 269.027130,205.064499 
	C270.168091,206.341202 271.009613,207.885559 271.981110,209.686646 
	C271.538788,210.044998 271.099335,210.027863 270.329895,210.007782 
	C258.730255,206.346436 247.463867,202.677811 236.188766,199.036270 
	C233.055374,198.024292 229.896088,197.092590 226.374451,195.687286 
	C225.497482,193.931747 225.349625,192.256088 224.437439,191.349136 
	C214.719147,181.686707 204.838486,172.187683 195.108353,162.536957 
	C193.176605,160.620941 191.694290,158.251770 190.410248,155.987747 
	C191.742294,155.546707 192.649414,154.991150 193.598404,154.906784 
	C201.315659,154.220688 209.047653,153.691772 216.755432,152.918335 
	C217.823959,152.811111 218.784637,151.628983 219.875214,150.955841 
	C219.955185,150.967209 220.101868,151.034927 220.101868,151.034927 
z"/>
<path fill="#F8D0A8" opacity="1.000000" stroke="none" 
	d="
M12.999922,122.471046 
	C14.038490,122.729881 15.552581,123.232841 15.996907,124.218185 
	C20.369678,133.915405 29.209084,139.558395 36.256886,146.811478 
	C45.145634,155.959152 54.147007,164.997665 62.987583,174.191147 
	C63.520435,174.745270 63.063526,176.251175 62.572601,177.661072 
	C58.389580,178.033432 54.701122,178.058945 51.012665,178.084457 
	C38.639050,178.719650 26.265436,179.354843 13.453886,179.987244 
	C13.003636,160.969299 12.991323,141.954163 12.999922,122.471046 
z"/>
<path fill="#FCEBD9" opacity="1.000000" stroke="none" 
	d="
M288.999481,71.532173 
	C284.297699,73.226082 281.213867,71.496559 277.968414,67.770081 
	C269.029938,57.506824 259.687592,47.569248 250.086899,37.918831 
	C244.580338,32.383755 238.074020,27.854919 232.390076,22.479437 
	C229.818054,20.046991 228.152222,16.656340 226.037109,13.353384 
	C236.019821,13.004573 246.040726,13.002778 256.536194,13.375223 
	C260.528717,18.713835 263.671112,24.011595 267.686401,28.534401 
	C270.757050,31.993118 275.931213,33.822861 278.354431,37.555630 
	C281.189087,41.922142 284.646820,42.773430 288.996338,43.001041 
	C288.998688,52.355171 289.001038,61.709301 288.999481,71.532173 
z"/>
<path fill="#FCEAD9" opacity="1.000000" stroke="none" 
	d="
M128.981415,235.085693 
	C122.734009,249.820129 127.389275,265.269623 126.140572,280.336151 
	C126.024002,281.742676 127.641708,283.385010 128.659531,284.766541 
	C129.603806,286.048279 130.823105,287.127411 131.960358,288.646027 
	C124.978172,288.998718 117.956963,289.001068 110.466965,288.999207 
	C109.971718,288.831329 109.999367,288.565308 109.911095,288.518646 
	C102.492264,284.597900 104.050407,277.607697 104.010757,271.194122 
	C103.964638,263.735321 104.039215,256.275757 103.986649,248.817032 
	C103.949615,243.563400 103.396851,238.226074 107.785553,233.412704 
	C111.883301,233.404999 115.437912,233.812317 119.014191,234.600769 
	C121.784187,238.033081 124.135933,237.866364 126.334953,234.417068 
	C127.427132,234.593460 128.204269,234.839584 128.981415,235.085693 
z"/>
<path fill="#FAE0C7" opacity="1.000000" stroke="none" 
	d="
M104.990662,38.437050 
	C105.124512,37.496387 105.716637,36.049881 105.322105,35.692448 
	C100.833328,31.625792 95.855331,28.044930 91.719795,23.662596 
	C89.179062,20.970238 87.865509,17.119804 85.999466,13.399720 
	C102.352287,13.005608 118.706535,13.001159 135.530640,13.390558 
	C136.426208,21.256287 143.007309,23.197100 147.673309,26.909836 
	C149.320969,28.220875 150.575821,30.025557 151.582031,31.698862 
	C144.433350,31.628307 137.712646,31.463749 130.608170,31.266842 
	C123.108253,33.415398 115.992126,35.596302 108.483353,37.811348 
	C107.057365,38.042679 106.024010,38.239864 104.990662,38.437050 
z"/>
<path fill="#FBE4CD" opacity="1.000000" stroke="none" 
	d="
M152.010025,31.604858 
	C150.575821,30.025557 149.320969,28.220875 147.673309,26.909836 
	C143.007309,23.197100 136.426208,21.256287 135.999115,13.396731 
	C148.019104,13.005017 160.040451,13.000979 172.530289,13.002712 
	C173.831024,15.058894 174.225815,17.476341 175.579224,19.089491 
	C179.333267,23.563925 182.378510,28.772264 187.913544,31.585432 
	C188.933182,32.103668 189.320572,33.865891 189.590454,35.469021 
	C180.122269,34.913921 171.063431,33.943726 161.751221,32.908974 
	C161.324905,32.866154 161.151947,32.887890 160.600800,32.830589 
	C159.194794,32.742306 158.166962,32.733055 156.813721,32.538727 
	C154.995560,32.104053 153.502792,31.854456 152.010025,31.604858 
z"/>
<path fill="#FDEDDD" opacity="1.000000" stroke="none" 
	d="
M288.999207,42.532288 
	C284.646820,42.773430 281.189087,41.922142 278.354431,37.555630 
	C275.931213,33.822861 270.757050,31.993118 267.686401,28.534401 
	C263.671112,24.011595 260.528717,18.713835 257.004761,13.377508 
	C266.266541,13.004375 275.536377,13.113794 284.800995,12.942399 
	C288.070404,12.881914 289.124023,14.017532 289.056854,17.240328 
	C288.884521,25.511518 289.001007,33.788727 288.999207,42.532288 
z"/>
<path fill="#F9DABB" opacity="1.000000" stroke="none" 
	d="
M190.004715,156.091583 
	C191.694290,158.251770 193.176605,160.620941 195.108353,162.536957 
	C204.838486,172.187683 214.719147,181.686707 224.437439,191.349136 
	C225.349625,192.256088 225.497482,193.931747 226.002975,195.635742 
	C218.295746,194.666290 210.585770,193.311600 202.443420,191.937622 
	C195.963120,190.544601 189.957748,188.927155 183.856003,187.861465 
	C176.906998,186.647797 169.872009,185.926514 162.437546,184.991272 
	C159.334991,184.664200 156.669266,184.337112 153.529175,183.682785 
	C153.036606,182.904099 153.018433,182.452667 153.089722,181.609711 
	C153.530899,178.512085 153.882614,175.805954 154.494537,172.883560 
	C155.063324,171.914246 155.242844,171.070312 155.699631,170.421616 
	C164.123428,158.458908 176.747253,156.509750 190.004715,156.091583 
z"/>
<path fill="#EE8D2C" opacity="1.000000" stroke="none" 
	d="
M200.549133,279.606689 
	C194.026169,276.959106 191.504578,272.323792 191.943008,265.772736 
	C192.185150,262.154694 192.017853,258.506805 191.979980,254.872955 
	C191.914688,248.606339 194.519745,244.079147 200.721710,241.492416 
	C204.713867,241.817795 208.738586,241.618973 212.048569,243.060883 
	C214.420731,244.094269 215.836304,247.323547 217.678650,249.573120 
	C217.286041,250.196793 216.893448,250.820450 216.500839,251.444122 
	C214.665771,251.066162 211.815704,251.284500 211.179810,250.202072 
	C208.989609,246.473846 206.146484,245.519653 202.411224,246.861908 
	C198.429260,248.292862 198.637207,251.858475 198.693710,255.219040 
	C198.701752,255.696548 198.901245,256.170807 199.103714,257.039673 
	C200.195435,256.729218 201.226227,256.500397 202.211609,256.145477 
	C208.902603,253.735489 215.170166,256.343079 217.309128,262.452332 
	C219.725266,269.353241 216.716309,276.850372 210.260330,278.833557 
	C207.360184,279.724426 204.090302,279.411743 200.549133,279.606689 
M211.176834,269.154144 
	C211.364471,265.264862 211.718735,260.974060 206.493195,260.336487 
	C202.841202,259.890930 199.419922,261.461334 198.529297,265.478638 
	C197.691696,269.256714 198.390961,272.955383 202.682816,274.396240 
	C206.791138,275.775513 209.763672,274.303802 211.176834,269.154144 
z"/>
<path fill="#EE8D2B" opacity="1.000000" stroke="none" 
	d="
M240.979782,241.709167 
	C247.741760,244.810654 249.515305,248.098267 249.076767,255.322281 
	C248.845673,259.129120 248.893890,262.967712 249.064667,266.780853 
	C249.357254,273.313965 246.779358,277.566711 241.220428,279.284668 
	C234.774796,281.276642 227.856674,279.117859 225.185394,273.770172 
	C223.915741,271.228455 223.236084,268.199799 223.064163,265.345062 
	C222.775711,260.555420 222.268982,255.527267 223.364777,250.962097 
	C225.224213,243.215591 231.396225,240.294022 240.979782,241.709167 
M242.454468,270.465179 
	C242.614258,264.524963 243.034119,258.576111 242.836609,252.647797 
	C242.717606,249.075150 240.788467,246.244659 236.665466,246.189651 
	C232.263336,246.130936 230.421234,249.103104 230.187088,252.886642 
	C229.870544,258.000977 229.563446,263.231476 230.332047,268.246643 
	C230.694168,270.609497 233.218323,273.672089 235.423889,274.391937 
	C237.158859,274.958160 239.907623,272.417969 242.454468,270.465179 
z"/>
<path fill="#DC8532" opacity="1.000000" stroke="none" 
	d="
M92.687317,60.447884 
	C92.690369,58.923176 92.813431,57.854832 93.412155,56.391861 
	C99.597588,58.347397 105.307350,60.697567 111.015457,63.458786 
	C111.008301,65.244919 111.002808,66.619995 110.727280,68.229691 
	C110.304237,69.642296 110.151230,70.820290 109.720551,72.227234 
	C108.619385,74.954613 107.243988,77.415871 107.072800,79.958221 
	C106.489433,88.621468 106.330391,97.313286 105.603477,106.048370 
	C103.086800,106.401688 100.932762,106.532318 98.880447,107.059174 
	C97.510811,107.410789 96.286026,108.326622 94.688599,109.006516 
	C94.176048,109.040840 93.971313,109.058601 93.766586,109.076355 
	C93.564667,107.950226 93.362747,106.824089 93.099358,105.350479 
	C93.060440,102.304474 93.082993,99.605949 93.317245,96.155937 
	C93.343628,92.937889 93.158310,90.471329 92.972984,88.004776 
	C92.917770,78.971268 92.862556,69.937759 92.687317,60.447884 
z"/>
<path fill="#C9742D" opacity="1.000000" stroke="none" 
	d="
M94.272186,163.835678 
	C94.308662,163.430939 94.345139,163.026184 94.330170,162.320084 
	C94.359978,159.633041 94.441231,157.247375 94.614647,154.123337 
	C94.779663,152.588318 94.852516,151.791656 95.274124,151.047806 
	C100.173607,153.267059 104.667015,155.574112 109.326508,157.473770 
	C110.192230,157.826721 111.726418,156.540054 113.011040,156.380432 
	C114.352997,159.523102 115.636024,162.295471 116.930695,165.399933 
	C117.266037,166.512543 117.589737,167.293060 117.925797,168.472443 
	C118.975967,172.870697 120.013771,176.870087 120.988953,181.212982 
	C118.557045,181.343765 116.087326,181.486343 113.837662,180.850418 
	C107.560867,179.076187 101.375259,176.979370 95.063461,174.572662 
	C94.739586,170.702179 94.505890,167.268921 94.272186,163.835678 
z"/>
<path fill="#D0792D" opacity="1.000000" stroke="none" 
	d="
M112.952103,156.010117 
	C111.726418,156.540054 110.192230,157.826721 109.326508,157.473770 
	C104.667015,155.574112 100.173607,153.267059 95.239388,150.692139 
	C94.575455,149.188049 94.295013,148.092453 94.014580,146.996857 
	C93.971649,144.930466 93.928726,142.864059 93.858582,139.956604 
	C93.885094,137.410583 93.938835,135.705612 94.382874,133.993378 
	C97.118843,134.016617 99.733681,133.397125 101.746742,134.230774 
	C104.724419,135.463913 105.804527,134.056808 106.995270,132.414948 
	C108.987869,140.552689 110.969986,148.281403 112.952103,156.010117 
z"/>
<path fill="#FADEC3" opacity="1.000000" stroke="none" 
	d="
M93.992577,134.000641 
	C93.938835,135.705612 93.885094,137.410583 93.737167,139.530396 
	C93.157158,139.556351 92.242775,139.160629 92.248856,138.779587 
	C92.368332,131.296356 92.594788,123.814850 93.205002,116.577026 
	C93.689362,117.905586 93.768127,118.990112 93.785927,120.529030 
	C93.814163,125.322495 93.903366,129.661560 93.992577,134.000641 
z"/>
<path fill="#EDBC8E" opacity="1.000000" stroke="none" 
	d="
M93.743286,147.255066 
	C94.295013,148.092453 94.575455,149.188049 94.890640,150.639313 
	C94.852516,151.791656 94.779663,152.588318 94.539276,153.750458 
	C94.071831,151.915039 93.771912,149.714157 93.743286,147.255066 
z"/>
<path fill="#D0792D" opacity="1.000000" stroke="none" 
	d="
M93.846893,120.074638 
	C93.768127,118.990112 93.689362,117.905586 93.548157,116.418236 
	C93.564415,113.991348 93.643105,111.967285 93.744186,109.509789 
	C93.971313,109.058601 94.176048,109.040840 94.689926,109.461746 
	C94.615013,113.291824 94.230957,116.683228 93.846893,120.074638 
z"/>
<path fill="#FBDFC5" opacity="1.000000" stroke="none" 
	d="
M72.000610,211.998779 
	C65.875031,207.423996 59.749454,202.849213 53.313255,198.136307 
	C50.939621,191.645172 50.939621,191.645172 58.090042,189.086273 
	C66.557487,188.267944 74.285240,187.647919 81.968689,187.377518 
	C81.625183,188.306305 81.322823,188.883820 81.027267,189.464813 
	C77.343811,196.705856 71.740448,203.178009 72.000610,211.998779 
z"/>
<path fill="#FCE6D2" opacity="1.000000" stroke="none" 
	d="
M82.013000,187.027878 
	C74.285240,187.647919 66.557487,188.267944 58.415424,188.943085 
	C56.905823,188.332825 55.867359,187.226151 54.705647,187.076553 
	C48.870075,186.325089 48.821960,186.334381 50.842617,180.792038 
	C51.057117,180.203705 50.957432,179.500824 51.008087,178.467773 
	C54.701122,178.058945 58.389580,178.033432 62.538437,178.000793 
	C73.318069,178.331161 83.637291,178.668686 94.506203,179.434021 
	C95.068954,181.565155 95.082024,183.268494 94.773621,185.200623 
	C90.305756,185.962234 86.159378,186.495056 82.013000,187.027878 
z"/>
<path fill="#EDBC8E" opacity="1.000000" stroke="none" 
	d="
M92.704857,88.283051 
	C93.158310,90.471329 93.343628,92.937889 93.300659,95.706635 
	C92.860497,93.526321 92.648613,91.043823 92.704857,88.283051 
z"/>
<path fill="#FADEC3" opacity="1.000000" stroke="none" 
	d="
M169.910477,77.967789 
	C167.973923,82.897591 171.797119,85.186104 174.497406,88.002342 
	C181.794510,95.612770 189.044815,103.268578 196.397156,110.825150 
	C197.995789,112.468170 200.204224,113.558151 201.636856,115.308060 
	C202.573273,116.451836 202.617722,118.325859 202.548004,120.202522 
	C200.721710,120.481964 199.409119,120.431679 197.763687,120.127335 
	C195.182877,119.393600 192.943253,118.869949 190.685501,118.441902 
	C181.126526,116.629608 171.562164,114.845726 161.684052,112.902740 
	C159.636322,111.721985 157.904327,110.689964 156.085083,109.361801 
	C155.020065,108.037277 154.042282,107.008896 152.928284,105.625153 
	C152.162857,101.845665 151.533630,98.421532 150.983536,94.659355 
	C151.346680,93.212662 151.630676,92.104012 152.090485,90.693665 
	C152.600952,89.299522 152.935608,88.207062 153.582977,87.064903 
	C154.929901,86.010529 155.964127,85.005852 157.284119,83.874001 
	C158.504395,82.905823 159.438934,82.064819 160.684143,81.181488 
	C162.030334,80.519180 163.065842,79.899223 164.473923,79.216934 
	C166.534485,78.759003 168.222488,78.363396 169.910477,77.967789 
z"/>
<path fill="#AD8254" opacity="1.000000" stroke="none" 
	d="
M212.991272,76.265381 
	C209.631363,76.228287 206.271439,76.191193 202.458206,76.225960 
	C201.557053,76.231888 201.109238,76.165955 199.931091,76.083740 
	C198.137222,76.095398 197.073669,76.123337 196.010132,76.151276 
	C187.949478,76.410088 179.888809,76.668892 171.263733,76.662994 
	C169.163467,75.278313 167.550079,74.248497 166.113251,73.013313 
	C164.636719,71.743996 163.332565,70.274178 162.222992,68.638748 
	C163.981812,68.228828 165.470612,68.072273 167.377289,67.881546 
	C169.919434,67.560326 172.050995,66.984734 174.166687,67.038063 
	C181.779175,67.229942 189.386322,67.634071 197.416885,67.970055 
	C201.555695,68.639702 205.273087,69.297287 209.406036,69.975342 
	C213.877533,70.669762 217.933487,71.343697 222.211456,72.276474 
	C223.084793,72.739738 223.736130,72.944160 224.387466,73.148582 
	C224.304184,73.539223 224.220917,73.929855 224.049896,74.608383 
	C221.254059,75.279114 218.545944,75.661957 215.085480,76.052048 
	C213.885849,76.127983 213.438568,76.196686 212.991272,76.265381 
z"/>
<path fill="#DA8431" opacity="1.000000" stroke="none" 
	d="
M198.096527,120.381393 
	C199.409119,120.431679 200.721710,120.481964 202.428223,120.545387 
	C203.965439,120.767685 205.108749,120.976860 206.606018,121.181595 
	C212.241516,124.805328 212.281418,130.945190 213.680328,136.654266 
	C203.046295,140.862732 187.277237,133.200974 186.429443,121.014069 
	C189.092819,121.230911 191.323257,121.680504 193.538864,121.616547 
	C195.068695,121.572380 196.578033,120.818253 198.096527,120.381393 
z"/>
<path fill="#B68853" opacity="1.000000" stroke="none" 
	d="
M161.952988,68.892105 
	C163.332565,70.274178 164.636719,71.743996 166.113251,73.013313 
	C167.550079,74.248497 169.163467,75.278313 170.852219,76.705147 
	C170.730621,77.189354 170.463257,77.376884 170.056763,77.771187 
	C168.222488,78.363396 166.534485,78.759003 164.327271,78.881393 
	C162.420456,77.508415 160.919708,76.522293 159.673203,75.280876 
	C158.017334,73.631783 156.559753,71.783569 155.232605,69.900551 
	C155.716736,69.572105 155.907333,69.307831 156.010010,68.994370 
	C156.000000,69.001381 155.978546,69.013161 156.407135,69.015701 
	C158.541489,68.976196 160.247238,68.934151 161.952988,68.892105 
z"/>
<path fill="#FBE4CC" opacity="1.000000" stroke="none" 
	d="
M196.080276,76.476639 
	C197.073669,76.123337 198.137222,76.095398 199.594254,76.139969 
	C198.708633,76.408997 197.429535,76.605499 196.080276,76.476639 
z"/>
<path fill="#DC8431" opacity="1.000000" stroke="none" 
	d="
M208.990494,69.954872 
	C205.273087,69.297287 201.555695,68.639702 197.320984,67.584778 
	C195.318542,66.794220 193.837387,66.079254 192.347595,66.060715 
	C183.565781,65.951439 174.781937,66.004227 165.999649,65.595749 
	C164.070786,60.356506 162.376572,55.412109 160.148956,50.721008 
	C157.622299,45.400177 154.617996,40.306156 151.810272,35.092968 
	C153.970337,34.132618 155.554733,33.428215 157.139114,32.723808 
	C158.166962,32.733055 159.194794,32.742306 160.686646,33.006359 
	C161.435303,33.165287 161.719955,33.069408 162.004608,32.973534 
	C171.063431,33.943726 180.122269,34.913921 189.593140,35.843906 
	C191.431931,36.170197 192.858658,36.536694 194.458557,37.382328 
	C195.526428,40.841663 196.066818,43.989639 197.383392,46.770073 
	C201.081223,54.579407 205.098938,62.237274 208.990494,69.954872 
z"/>
<path fill="#D58130" opacity="1.000000" stroke="none" 
	d="
M209.406036,69.975342 
	C205.098938,62.237274 201.081223,54.579407 197.383392,46.770073 
	C196.066818,43.989639 195.526428,40.841663 194.789825,37.547878 
	C195.130295,37.194958 195.312637,37.155628 196.044418,37.363785 
	C198.371536,37.751888 200.149231,37.892502 201.926926,38.033119 
	C201.926926,38.033119 201.996384,38.019131 202.070145,38.395287 
	C203.937378,40.863041 206.018555,42.773354 207.471588,45.079449 
	C212.265839,52.688431 216.883545,60.410915 221.426941,68.173004 
	C222.033493,69.209259 221.822083,70.724312 221.989456,72.017639 
	C217.933487,71.343697 213.877533,70.669762 209.406036,69.975342 
z"/>
<path fill="#CE7D30" opacity="1.000000" stroke="none" 
	d="
M222.211456,72.276474 
	C221.822083,70.724312 222.033493,69.209259 221.426941,68.173004 
	C216.883545,60.410915 212.265839,52.688431 207.471588,45.079449 
	C206.018555,42.773354 203.937378,40.863041 202.056030,38.427788 
	C206.468231,39.031273 211.029236,39.769703 215.430573,41.054920 
	C216.722275,41.432102 218.170959,43.212852 218.508423,44.602673 
	C220.759186,53.872166 222.728348,63.210030 224.588226,72.837128 
	C223.736130,72.944160 223.084793,72.739738 222.211456,72.276474 
z"/>
<path fill="#CE7D30" opacity="1.000000" stroke="none" 
	d="
M201.796387,37.740242 
	C200.149231,37.892502 198.371536,37.751888 196.324036,37.353218 
	C198.157227,33.508907 199.763123,37.842781 201.796387,37.740242 
z"/>
<path fill="#EE8E2D" opacity="1.000000" stroke="none" 
	d="
M164.545166,277.587402 
	C162.804932,275.103180 161.405334,272.804138 159.798370,270.164490 
	C163.716385,268.965363 165.884064,269.142792 167.870773,272.216309 
	C169.929321,275.400970 173.750900,275.939575 176.725311,273.959473 
	C178.499756,272.778229 179.840210,269.824005 179.990417,267.574280 
	C180.245758,263.749817 176.899460,263.147797 173.838287,262.434418 
	C172.431992,262.106720 171.258774,260.778778 169.979858,259.904419 
	C171.265701,258.929718 172.528854,257.923096 173.843094,256.988281 
	C175.536163,255.784012 178.469070,254.830902 178.697144,253.418945 
	C179.015564,251.447723 177.790695,247.786102 176.390396,247.310944 
	C174.205383,246.569504 171.216431,247.594147 168.761108,248.434402 
	C166.615631,249.168610 164.736404,250.680771 162.739548,251.849243 
	C162.319244,251.441620 161.898941,251.033997 161.478638,250.626373 
	C161.799194,249.292023 162.119766,247.957672 162.524780,246.321991 
	C166.273087,242.038147 170.831970,240.428833 176.124329,241.301300 
	C180.425156,242.010300 184.111908,243.782837 185.332626,248.513748 
	C186.495316,253.019760 185.444733,256.745789 181.887421,258.870453 
	C183.580017,261.833984 186.103699,264.514496 186.641663,267.547241 
	C187.856003,274.393280 182.640457,279.774841 174.958252,279.811890 
	C171.604126,279.828064 168.243469,278.493683 164.545166,277.587402 
z"/>
<path fill="#C16C2A" opacity="1.000000" stroke="none" 
	d="
M95.095100,184.971817 
	C95.082024,183.268494 95.068954,181.565155 94.954193,179.447601 
	C94.880898,178.571960 94.909294,178.110550 94.928741,176.989075 
	C94.997734,175.889313 95.075691,175.449615 95.153648,175.009903 
	C101.375259,176.979370 107.560867,179.076187 113.837662,180.850418 
	C116.087326,181.486343 118.557045,181.343765 121.283386,181.403961 
	C122.824135,183.562912 123.881638,185.950958 125.225502,188.165237 
	C126.695259,190.586960 128.429764,192.848038 130.037277,195.307281 
	C130.025665,195.435425 129.998947,195.695923 130.000854,196.049210 
	C130.372894,196.943390 130.743027,197.484299 131.461029,198.093536 
	C132.204300,199.441010 132.599716,200.720123 132.734482,202.226837 
	C132.115799,203.512955 131.757751,204.571472 131.350067,205.776749 
	C124.989937,203.257812 118.812263,200.910294 112.715988,198.367615 
	C107.087105,196.019882 101.545532,193.462830 95.882240,190.610062 
	C95.564346,188.472046 95.329727,186.721924 95.095100,184.971817 
z"/>
<path fill="#F9D6B3" opacity="1.000000" stroke="none" 
	d="
M95.063461,174.572662 
	C95.075691,175.449615 94.997734,175.889313 94.834106,176.653229 
	C91.166084,173.080887 93.355179,168.656097 93.935188,164.122559 
	C94.505890,167.268921 94.739586,170.702179 95.063461,174.572662 
z"/>
<path fill="#FADEC3" opacity="1.000000" stroke="none" 
	d="
M213.045380,76.533310 
	C213.438568,76.196686 213.885849,76.127983 214.669693,76.115891 
	C214.370651,76.382072 213.735077,76.591644 213.045380,76.533310 
z"/>
<path fill="#F9DBBD" opacity="1.000000" stroke="none" 
	d="
M94.773621,185.200623 
	C95.329727,186.721924 95.564346,188.472046 95.826752,191.076111 
	C95.884514,194.735046 95.779213,197.549591 95.977318,200.342621 
	C96.250443,204.193375 96.752647,208.027878 97.111984,212.327057 
	C97.277534,218.536453 97.487816,224.288147 97.698090,230.039841 
	C91.402054,225.799820 85.108368,221.556335 78.806587,217.324860 
	C78.128441,216.869492 77.403267,216.484146 76.352173,216.022171 
	C74.791985,214.823471 73.579529,213.668900 72.183838,212.256561 
	C71.740448,203.178009 77.343811,196.705856 81.027267,189.464813 
	C81.322823,188.883820 81.625183,188.306305 81.968689,187.377518 
	C86.159378,186.495056 90.305756,185.962234 94.773621,185.200623 
z"/>
<path fill="#B36129" opacity="1.000000" stroke="none" 
	d="
M98.006142,230.269394 
	C97.487816,224.288147 97.277534,218.536453 97.619987,212.368515 
	C100.775688,212.341415 103.522911,212.326324 105.954994,213.194290 
	C113.748703,215.975693 121.347359,219.313080 129.173523,221.990997 
	C135.038040,223.997696 141.137451,225.317886 147.397095,227.149292 
	C148.751190,229.572906 149.840469,231.790985 150.735382,234.110382 
	C150.298172,234.388840 150.120590,234.616791 150.013184,235.072693 
	C150.018143,235.249847 150.179337,235.565491 150.179337,235.565491 
	C147.455246,235.464371 144.731140,235.363251 141.121460,235.140350 
	C137.832520,235.040802 135.429138,235.063019 132.683563,235.081863 
	C131.891296,235.133026 131.441269,235.187546 130.991226,235.242065 
	C130.546402,235.183929 130.101578,235.125809 129.319092,235.076691 
	C128.204269,234.839584 127.427132,234.593460 125.909515,234.295105 
	C123.110199,234.235107 121.051361,234.227356 118.992523,234.219635 
	C115.437912,233.812317 111.883301,233.404999 107.900200,232.985046 
	C104.419205,232.147903 101.366699,231.323425 98.006142,230.269394 
z"/>
<path fill="#D29C57" opacity="1.000000" stroke="none" 
	d="
M151.790588,195.995117 
	C151.780914,197.712402 151.771225,199.429703 151.318604,201.557129 
	C146.610809,198.700363 142.413864,195.338715 138.049026,192.211365 
	C136.201904,190.887939 134.001846,190.057144 131.699173,188.762451 
	C129.928589,183.431030 128.421005,178.339584 126.920029,172.903915 
	C126.579056,172.008301 126.231483,171.456924 125.856308,170.753235 
	C125.828712,170.600906 125.894173,170.298309 125.928329,169.856628 
	C127.654297,163.066116 128.604248,156.390091 131.223938,150.450500 
	C134.569000,142.866257 139.603851,136.207596 147.916458,133.414215 
	C147.999481,135.552841 148.038376,137.264511 147.721313,139.017731 
	C145.827652,140.012146 143.960602,140.670105 142.802719,141.963120 
	C129.865250,156.410522 129.422256,174.695480 141.551239,188.817078 
	C144.182831,191.881012 148.337448,193.636810 151.790588,195.995117 
z"/>
<path fill="#CB9756" opacity="1.000000" stroke="none" 
	d="
M151.769257,195.665924 
	C148.337448,193.636810 144.182831,191.881012 141.551239,188.817078 
	C129.422256,174.695480 129.865250,156.410522 142.802719,141.963120 
	C143.960602,140.670105 145.827652,140.012146 148.031464,139.069107 
	C149.157990,139.712219 149.618408,140.345490 149.724457,141.020050 
	C147.553116,142.901581 145.639404,144.656769 143.935043,146.595947 
	C133.570694,158.388168 134.954987,178.973297 146.845169,189.247238 
	C147.571701,189.875031 148.933380,189.767715 150.252380,190.193817 
	C150.690903,190.982986 150.876602,191.580811 151.062286,192.178619 
	C151.290833,193.231323 151.519379,194.284012 151.769257,195.665924 
z"/>
<path fill="#BF8F55" opacity="1.000000" stroke="none" 
	d="
M151.372559,191.933594 
	C150.876602,191.580811 150.690903,190.982986 150.214905,189.844849 
	C149.284409,188.359177 148.697968,187.371765 147.995850,186.474899 
	C139.190735,175.227646 136.891098,163.359116 144.736832,150.644867 
	C146.609924,147.609467 148.914703,144.840439 151.304138,142.096191 
	C152.723129,143.169998 153.858887,144.096527 154.844269,145.320862 
	C143.546844,156.540085 142.879990,168.966248 148.573593,178.898376 
	C149.384811,180.313492 151.492569,180.985352 153.000244,182.001221 
	C153.018433,182.452667 153.036606,182.904099 153.099396,183.691940 
	C152.656937,186.581741 152.169891,189.135162 151.372559,191.933594 
z"/>
<path fill="#EBB165" opacity="1.000000" stroke="none" 
	d="
M150.929764,234.009064 
	C149.840469,231.790985 148.751190,229.572906 147.372894,226.771179 
	C145.314850,221.473450 143.545807,216.759384 142.188049,212.033951 
	C145.636520,212.671463 148.673706,213.320328 151.710907,213.969193 
	C152.088699,220.271927 152.563141,226.571899 152.743347,232.880280 
	C152.771393,233.861771 151.456100,234.881638 150.470673,235.724609 
	C150.179337,235.565491 150.018143,235.249847 150.248047,235.029144 
	C150.784912,234.630417 150.935501,234.363953 150.929764,234.009064 
z"/>
<path fill="#DBA258" opacity="1.000000" stroke="none" 
	d="
M131.962189,189.002457 
	C134.001846,190.057144 136.201904,190.887939 138.049026,192.211365 
	C142.413864,195.338715 146.610809,198.700363 151.202332,201.970001 
	C151.617447,203.367416 151.705841,204.762115 151.355377,206.573105 
	C149.569794,206.499710 148.166748,206.125031 146.887024,205.498489 
	C143.264175,203.724716 139.691788,201.847855 136.006592,199.656891 
	C134.596512,195.868927 133.279343,192.435699 131.962189,189.002457 
z"/>
<path fill="#E3A85A" opacity="1.000000" stroke="none" 
	d="
M136.099533,200.011597 
	C139.691788,201.847855 143.264175,203.724716 146.887024,205.498489 
	C148.166748,206.125031 149.569794,206.499710 151.271149,206.985001 
	C151.702957,209.022202 151.780151,211.063782 151.784119,213.537292 
	C148.673706,213.320328 145.636520,212.671463 141.976379,211.924530 
	C140.967682,211.536926 140.581909,211.247375 140.148010,210.583984 
	C138.766434,206.810654 137.432983,203.411118 136.099533,200.011597 
z"/>
<path fill="#EBB165" opacity="1.000000" stroke="none" 
	d="
M133.025772,235.085236 
	C135.429138,235.063019 137.832520,235.040802 140.670563,235.138458 
	C138.642303,235.643143 136.179337,236.027969 133.428864,235.957855 
	C133.141342,235.502930 133.025772,235.085220 133.025772,235.085236 
z"/>
<path fill="#FCE7D5" opacity="1.000000" stroke="none" 
	d="
M132.683563,235.081848 
	C133.025772,235.085220 133.141342,235.502930 133.146835,235.718689 
	C132.453232,235.871368 131.754150,235.808319 131.023132,235.493668 
	C131.441269,235.187546 131.891296,235.133026 132.683563,235.081848 
z"/>
<path fill="#D27E2E" opacity="1.000000" stroke="none" 
	d="
M185.990173,121.027756 
	C187.277237,133.200974 203.046295,140.862732 213.610184,137.051605 
	C215.267776,139.428375 216.515381,141.858337 217.356354,144.647522 
	C213.630676,146.322052 210.311646,147.637375 206.592377,148.961517 
	C204.132416,148.666641 202.072708,148.362961 199.968491,147.695969 
	C197.627365,145.934967 195.478119,144.150238 193.007477,143.209595 
	C184.333740,139.907196 174.802414,129.416840 176.336945,120.916161 
	C177.102325,120.917747 177.539688,120.929810 178.069336,121.114594 
	C178.446182,121.177216 178.730743,121.067116 179.427567,120.942459 
	C181.208740,120.892197 182.577637,120.856506 184.285828,120.867737 
	C185.080124,120.952354 185.535141,120.990051 185.990173,121.027756 
z"/>
<path fill="#CA7A2D" opacity="1.000000" stroke="none" 
	d="
M206.992630,148.952713 
	C210.311646,147.637375 213.630676,146.322052 217.333344,145.006866 
	C218.479614,146.769363 219.242264,148.531723 220.053375,150.664490 
	C220.101868,151.034927 219.955185,150.967209 219.465195,150.976135 
	C214.981018,150.307617 210.986816,149.630173 206.992630,148.952713 
z"/>
<path fill="#D0792D" opacity="1.000000" stroke="none" 
	d="
M96.821320,42.637398 
	C97.223663,42.351337 97.626007,42.065281 98.639214,41.940254 
	C104.001343,44.175659 108.672928,46.464058 113.524025,48.270317 
	C119.609100,50.536034 120.529938,49.756966 121.328079,43.000259 
	C122.090096,42.995270 122.525551,42.993237 123.213654,42.830505 
	C123.639206,42.113102 123.812119,41.556400 123.991096,40.998871 
	C123.997162,40.998047 123.998070,40.986134 124.216476,40.881371 
	C124.707359,40.579609 124.891235,40.319866 124.992157,39.997940 
	C124.997826,39.998505 124.992836,39.983307 125.341858,39.953552 
	C127.245415,40.525444 129.515839,40.672245 130.235245,41.804516 
	C134.131836,47.937305 137.669250,54.299858 141.280243,60.611950 
	C143.232559,64.024635 145.084839,67.494560 146.638458,71.002312 
	C144.190964,72.343582 142.087250,73.621201 139.687744,74.945862 
	C138.922134,75.324501 138.452332,75.656090 137.991577,75.993530 
	C138.000610,75.999390 137.986572,75.981453 137.681702,76.104279 
	C135.923264,77.445702 134.469696,78.664291 132.736664,80.012894 
	C131.628250,80.729187 130.799301,81.315460 129.932526,81.542587 
	C126.211815,73.699165 122.577858,66.189857 118.777618,58.765659 
	C118.352417,57.934978 116.983917,57.587147 116.040039,56.760471 
	C116.022385,56.335438 116.017548,56.165333 116.005737,55.997536 
	C115.998749,55.999836 115.996750,56.014503 116.242722,55.825653 
	C116.326767,54.761620 116.164848,53.886444 115.774063,52.739986 
	C113.082954,51.601456 110.449821,51.043510 108.196358,49.798416 
	C104.281075,47.635120 100.600380,45.047245 96.821320,42.637398 
z"/>
<path fill="#D47F2E" opacity="1.000000" stroke="none" 
	d="
M96.456772,42.684544 
	C100.600380,45.047245 104.281075,47.635120 108.196358,49.798416 
	C110.449821,51.043510 113.082954,51.601456 115.770767,53.114990 
	C115.996483,54.512348 115.996613,55.263428 115.996750,56.014503 
	C115.996750,56.014503 115.998749,55.999836 115.658188,56.050301 
	C113.884125,58.416420 112.450630,60.732079 111.017120,63.047737 
	C105.307350,60.697567 99.597588,58.347397 93.493774,55.995243 
	C93.079475,52.284199 93.059219,48.575142 93.290070,44.333031 
	C93.725731,43.663250 93.864571,43.489902 93.957703,43.279938 
	C94.669212,43.097187 95.380714,42.914440 96.456772,42.684544 
z"/>
<path fill="#CB7B2F" opacity="1.000000" stroke="none" 
	d="
M121.001526,43.003220 
	C120.529938,49.756966 119.609100,50.536034 113.524025,48.270317 
	C108.672928,46.464058 104.001343,44.175659 98.895699,41.941936 
	C100.513916,40.777752 102.486504,39.772911 104.724876,38.602562 
	C106.024010,38.239864 107.057365,38.042679 108.721703,38.117828 
	C113.235634,39.927853 117.118584,41.465538 121.001526,43.003220 
z"/>
<path fill="#DC8532" opacity="1.000000" stroke="none" 
	d="
M93.749008,43.265526 
	C93.864571,43.489902 93.725731,43.663250 93.394348,43.880325 
	C93.141243,43.639950 93.238846,43.403431 93.749008,43.265526 
z"/>
<path fill="#AD8254" opacity="1.000000" stroke="none" 
	d="
M206.592377,148.961517 
	C210.986816,149.630173 214.981018,150.307617 219.385223,150.964752 
	C218.784637,151.628983 217.823959,152.811111 216.755432,152.918335 
	C209.047653,153.691772 201.315659,154.220688 193.598404,154.906784 
	C192.649414,154.991150 191.742294,155.546707 190.410248,155.987747 
	C176.747253,156.509750 164.123428,158.458908 155.699631,170.421616 
	C155.242844,171.070312 155.063324,171.914246 154.107529,172.817841 
	C152.417450,170.133057 150.319336,167.213257 150.538162,164.478897 
	C151.097900,157.484863 155.032303,151.873077 160.332947,147.024933 
	C161.108002,147.017258 161.550949,147.015396 162.401398,147.029678 
	C165.541046,147.328949 168.273178,147.612076 171.462555,147.918457 
	C175.283920,147.923279 178.648056,147.904846 182.475952,147.911911 
	C188.630798,147.978027 194.321899,148.018661 200.012985,148.059296 
	C202.072708,148.362961 204.132416,148.666641 206.592377,148.961517 
z"/>
<path fill="#FCE7D5" opacity="1.000000" stroke="none" 
	d="
M119.014191,234.600769 
	C121.051361,234.227356 123.110199,234.235107 125.594475,234.364822 
	C124.135933,237.866364 121.784187,238.033081 119.014191,234.600769 
z"/>
<path fill="#D7802F" opacity="1.000000" stroke="none" 
	d="
M146.982239,70.938660 
	C145.084839,67.494560 143.232559,64.024635 141.280243,60.611950 
	C137.669250,54.299858 134.131836,47.937305 130.235245,41.804516 
	C129.515839,40.672245 127.245415,40.525444 125.394096,39.620869 
	C127.062202,36.645027 129.027084,33.972111 130.991959,31.299194 
	C137.712646,31.463749 144.433350,31.628307 151.582031,31.698860 
	C153.502792,31.854456 154.995560,32.104053 156.813721,32.538727 
	C155.554733,33.428215 153.970337,34.132618 151.810272,35.092968 
	C154.617996,40.306156 157.622299,45.400177 160.148956,50.721008 
	C162.376572,55.412109 164.070786,60.356506 165.703690,65.617859 
	C164.923111,66.345612 164.439362,66.644569 163.556061,66.955627 
	C160.763855,67.649536 158.371201,68.331352 155.978546,69.013161 
	C155.978546,69.013161 156.000000,69.001381 155.636505,68.988144 
	C154.141006,69.312782 153.009018,69.650673 151.674072,69.986969 
	C151.471100,69.985374 151.065765,70.007950 150.710785,70.006714 
	C149.231277,70.316544 148.106750,70.627602 146.982239,70.938660 
z"/>
<path fill="#C1742B" opacity="1.000000" stroke="none" 
	d="
M130.608170,31.266846 
	C129.027084,33.972111 127.062202,36.645027 125.045074,39.650623 
	C124.992836,39.983307 124.997826,39.998505 124.774696,40.103642 
	C124.281570,40.407005 124.097069,40.666126 123.998070,40.986134 
	C123.998070,40.986134 123.997162,40.998047 123.746979,41.166000 
	C123.318207,41.886372 123.139610,42.438789 122.961014,42.991203 
	C122.525551,42.993237 122.090096,42.995270 121.328079,43.000259 
	C117.118584,41.465538 113.235634,39.927853 109.114349,38.083687 
	C115.992126,35.596302 123.108253,33.415398 130.608170,31.266846 
z"/>
<path fill="#D7802F" opacity="1.000000" stroke="none" 
	d="
M161.751221,32.908974 
	C161.719955,33.069408 161.435303,33.165287 161.064819,33.085396 
	C161.151947,32.887890 161.324905,32.866154 161.751221,32.908974 
z"/>
<path fill="#B68853" opacity="1.000000" stroke="none" 
	d="
M160.000824,147.030731 
	C155.032303,151.873077 151.097900,157.484863 150.538162,164.478897 
	C150.319336,167.213257 152.417450,170.133057 153.847321,173.034103 
	C153.882614,175.805954 153.530899,178.512085 153.089722,181.609711 
	C151.492569,180.985352 149.384811,180.313492 148.573593,178.898376 
	C142.879990,168.966248 143.546844,156.540085 155.193176,145.352142 
	C157.128586,145.733948 158.564697,146.382339 160.000824,147.030731 
z"/>
<path fill="#FCEAD9" opacity="1.000000" stroke="none" 
	d="
M211.113113,269.568237 
	C209.763672,274.303802 206.791138,275.775513 202.682816,274.396240 
	C198.390961,272.955383 197.691696,269.256714 198.529297,265.478638 
	C199.419922,261.461334 202.841202,259.890930 206.493195,260.336487 
	C211.718735,260.974060 211.364471,265.264862 211.113113,269.568237 
z"/>
<path fill="#FCEEE0" opacity="1.000000" stroke="none" 
	d="
M242.330261,270.861420 
	C239.907623,272.417969 237.158859,274.958160 235.423889,274.391937 
	C233.218323,273.672089 230.694168,270.609497 230.332047,268.246643 
	C229.563446,263.231476 229.870544,258.000977 230.187088,252.886642 
	C230.421234,249.103104 232.263336,246.130936 236.665466,246.189651 
	C240.788467,246.244659 242.717606,249.075150 242.836609,252.647797 
	C243.034119,258.576111 242.614258,264.524963 242.330261,270.861420 
z"/>
<path fill="#D68031" opacity="1.000000" stroke="none" 
	d="
M93.785927,120.529030 
	C94.230957,116.683228 94.615013,113.291824 94.997742,109.445175 
	C96.286026,108.326622 97.510811,107.410789 98.880447,107.059174 
	C100.932762,106.532318 103.086800,106.401688 105.604721,106.497772 
	C106.336174,115.263969 106.660484,123.634949 106.984787,132.005920 
	C105.804527,134.056808 104.724419,135.463913 101.746742,134.230774 
	C99.733681,133.397125 97.118843,134.016617 94.382874,133.993378 
	C93.903366,129.661560 93.814163,125.322495 93.785927,120.529030 
z"/>
<path fill="#E39845" opacity="1.000000" stroke="none" 
	d="
M106.995270,132.414948 
	C106.660484,123.634949 106.336174,115.263969 106.010628,106.443604 
	C106.330391,97.313286 106.489433,88.621468 107.072800,79.958221 
	C107.243988,77.415871 108.619385,74.954613 109.729141,72.233032 
	C110.015419,72.009872 110.032608,72.020943 110.031769,72.433914 
	C110.006927,74.225945 109.982925,75.605003 109.690643,77.269165 
	C108.625206,83.377869 107.828049,89.201477 107.010574,95.490738 
	C106.752029,110.436256 106.698532,124.899406 110.904358,139.381744 
	C112.991409,148.160812 115.060974,156.536514 117.077148,164.950409 
	C117.023750,164.988602 116.919044,165.067841 116.919044,165.067841 
	C115.636024,162.295471 114.352997,159.523102 113.011040,156.380432 
	C110.969986,148.281403 108.987869,140.552689 106.995270,132.414948 
z"/>
<path fill="#DF9444" opacity="1.000000" stroke="none" 
	d="
M111.015457,63.458786 
	C112.450630,60.732079 113.884125,58.416420 115.665176,56.047997 
	C116.017548,56.165333 116.022385,56.335438 115.979980,57.123734 
	C114.306396,61.168957 112.680031,64.595985 111.039215,68.016861 
	C111.024757,68.010719 110.997322,67.995079 110.997322,67.995079 
	C111.002808,66.619995 111.008301,65.244919 111.015457,63.458786 
z"/>
<path fill="#E39845" opacity="1.000000" stroke="none" 
	d="
M110.006821,72.004082 
	C110.151230,70.820290 110.304237,69.642296 110.727280,68.229691 
	C110.997322,67.995079 111.024757,68.010719 111.034378,68.380539 
	C110.706871,69.840561 110.369736,70.930748 110.032608,72.020943 
	C110.032608,72.020943 110.015419,72.009872 110.006821,72.004082 
z"/>
<path fill="#DF9444" opacity="1.000000" stroke="none" 
	d="
M130.048889,195.179123 
	C128.429764,192.848038 126.695259,190.586960 125.225502,188.165237 
	C123.881638,185.950958 122.824135,183.562912 121.346001,181.060455 
	C120.013771,176.870087 118.975967,172.870697 117.993294,168.426971 
	C118.048424,167.982620 118.188316,167.899399 118.465897,168.102356 
	C122.511955,177.263260 126.280426,186.221191 130.048889,195.179123 
z"/>
<path fill="#E39845" opacity="1.000000" stroke="none" 
	d="
M117.980927,168.028091 
	C117.589737,167.293060 117.266037,166.512543 116.930695,165.399933 
	C116.919044,165.067841 117.023750,164.988602 117.315811,165.176056 
	C117.801353,166.208801 117.994843,167.054092 118.188324,167.899399 
	C118.188316,167.899399 118.048424,167.982620 117.980927,168.028091 
z"/>
<path fill="#FBBA5E" opacity="1.000000" stroke="none" 
	d="
M150.904404,94.997398 
	C151.533630,98.421532 152.162857,101.845665 152.519318,105.632339 
	C146.082214,108.597649 139.569336,110.606247 133.846970,113.962601 
	C127.541252,117.661102 121.961540,122.597412 116.024048,126.529572 
	C116.008141,121.049294 116.033752,116.033943 116.315071,110.729858 
	C118.508240,104.004364 120.445717,97.567596 122.628731,90.931519 
	C124.215919,89.140923 125.557571,87.549614 127.270920,86.006638 
	C129.721939,87.012428 131.750961,88.105080 133.890335,88.901138 
	C139.536133,91.001923 145.229797,92.974052 150.904404,94.997398 
z"/>
<path fill="#E3A85A" opacity="1.000000" stroke="none" 
	d="
M186.429443,121.014069 
	C185.535141,120.990051 185.080124,120.952354 184.187103,120.496071 
	C176.077972,119.851540 168.407074,119.613747 160.734573,119.453964 
	C160.492218,119.448929 160.233139,120.247284 159.979248,120.758911 
	C159.976624,120.846718 160.001495,121.020630 159.650406,121.048317 
	C157.516205,121.979721 155.733093,122.883438 153.620392,123.871353 
	C151.870575,125.335945 150.450378,126.716354 148.820038,127.822151 
	C141.360458,127.796242 137.199097,133.071594 133.247070,137.879120 
	C128.576263,143.561050 124.883690,150.047150 120.547852,155.944214 
	C119.993950,154.463913 119.659248,153.224060 119.661407,151.880783 
	C120.269569,146.921310 121.354935,143.009262 125.043045,138.855576 
	C132.904709,130.001480 141.532181,122.896370 152.571518,118.566452 
	C155.920135,117.253021 158.868225,114.918381 161.999771,113.051468 
	C171.562164,114.845726 181.126526,116.629608 190.685501,118.441902 
	C192.943253,118.869949 195.182877,119.393600 197.763687,120.127342 
	C196.578033,120.818253 195.068695,121.572380 193.538864,121.616547 
	C191.323257,121.680504 189.092819,121.230911 186.429443,121.014069 
z"/>
<path fill="#F3B45D" opacity="1.000000" stroke="none" 
	d="
M116.065567,126.994507 
	C121.961540,122.597412 127.541252,117.661102 133.846970,113.962601 
	C139.569336,110.606247 146.082214,108.597649 152.655548,105.987694 
	C154.042282,107.008896 155.020065,108.037277 155.915298,109.711044 
	C154.457809,111.220963 153.177643,112.326012 151.692642,112.911301 
	C141.472839,116.939240 131.868286,121.851349 124.796448,130.646255 
	C122.271713,133.786148 119.682983,136.874588 117.082108,139.548843 
	C116.715698,135.072281 116.390633,131.033401 116.065567,126.994507 
z"/>
<path fill="#EAAD5B" opacity="1.000000" stroke="none" 
	d="
M117.123459,139.986511 
	C119.682983,136.874588 122.271713,133.786148 124.796448,130.646255 
	C131.868286,121.851349 141.472839,116.939240 151.692642,112.911301 
	C153.177643,112.326012 154.457809,111.220963 156.002533,110.007187 
	C157.904327,110.689964 159.636322,111.721985 161.684052,112.902740 
	C158.868225,114.918381 155.920135,117.253021 152.571518,118.566452 
	C141.532181,122.896370 132.904709,130.001480 125.043045,138.855576 
	C121.354935,143.009262 120.269569,146.921310 119.581932,151.472290 
	C118.733543,148.447891 118.301491,145.728561 117.877632,142.693298 
	C117.631706,141.580414 117.377586,140.783463 117.123459,139.986511 
z"/>
<path fill="#F3B45D" opacity="1.000000" stroke="none" 
	d="
M150.983536,94.659355 
	C145.229797,92.974052 139.536133,91.001923 133.890335,88.901138 
	C131.750961,88.105080 129.721939,87.012428 127.414925,85.720505 
	C128.114929,84.224602 129.042633,83.063164 129.970337,81.901733 
	C130.799301,81.315460 131.628250,80.729187 132.736908,80.399117 
	C133.476624,81.643906 133.683334,83.190041 134.436951,83.532440 
	C140.202911,86.152046 146.075348,88.537270 151.914688,90.995361 
	C151.630676,92.104012 151.346680,93.212662 150.983536,94.659355 
z"/>
<path fill="#E3A85A" opacity="1.000000" stroke="none" 
	d="
M146.638458,71.002312 
	C148.106750,70.627602 149.231277,70.316544 150.544052,70.301567 
	C149.161285,71.404388 147.590240,72.211121 145.703140,73.149384 
	C144.016800,74.072037 142.646515,74.863167 139.867584,76.467583 
	C146.373672,79.328766 151.686020,81.664970 156.998352,84.001175 
	C155.964127,85.005852 154.929901,86.010529 153.179810,87.025299 
	C148.994568,85.533188 145.539368,83.997047 142.051483,82.539177 
	C139.104965,81.307571 137.563950,79.269592 137.986572,75.981453 
	C137.986572,75.981453 138.000610,75.999390 138.297791,75.972717 
	C139.057831,75.596977 139.520691,75.247902 139.983551,74.898819 
	C142.087250,73.621201 144.190964,72.343582 146.638458,71.002312 
z"/>
<path fill="#EAAD5B" opacity="1.000000" stroke="none" 
	d="
M137.681702,76.104279 
	C137.563950,79.269592 139.104965,81.307571 142.051483,82.539177 
	C145.539368,83.997047 148.994568,85.533188 152.867096,87.075005 
	C152.935608,88.207062 152.600952,89.299522 152.090485,90.693665 
	C146.075348,88.537270 140.202911,86.152046 134.436951,83.532440 
	C133.683334,83.190041 133.476624,81.643906 133.016357,80.269096 
	C134.469696,78.664291 135.923264,77.445702 137.681702,76.104279 
z"/>
<path fill="#CB9756" opacity="1.000000" stroke="none" 
	d="
M146.019211,73.017853 
	C147.590240,72.211121 149.161285,71.404388 150.899048,70.302795 
	C151.065765,70.007950 151.471100,69.985374 152.068848,69.995468 
	C153.450058,70.010674 154.233521,70.015793 155.016983,70.020912 
	C156.559753,71.783569 158.017334,73.631783 159.673203,75.280876 
	C160.919708,76.522293 162.420456,77.508415 163.954697,78.943726 
	C163.065842,79.899223 162.030334,80.519180 160.323318,81.011757 
	C155.107605,78.262199 150.563416,75.640030 146.019211,73.017853 
z"/>
<path fill="#D29C57" opacity="1.000000" stroke="none" 
	d="
M145.703140,73.149384 
	C150.563416,75.640030 155.107605,78.262199 160.012634,81.054092 
	C159.438934,82.064819 158.504395,82.905823 157.284119,83.873993 
	C151.686020,81.664970 146.373672,79.328766 139.867584,76.467583 
	C142.646515,74.863167 144.016800,74.072037 145.703140,73.149384 
z"/>
<path fill="#DF9444" opacity="1.000000" stroke="none" 
	d="
M163.955627,66.943527 
	C164.439362,66.644569 164.923111,66.345612 165.702820,66.024551 
	C174.781937,66.004227 183.565781,65.951439 192.347595,66.060715 
	C193.837387,66.079254 195.318542,66.794220 196.899582,67.572708 
	C189.386322,67.634071 181.779175,67.229942 174.166687,67.038063 
	C172.050995,66.984734 169.919434,67.560326 167.163193,67.636040 
	C165.672699,67.264305 164.814163,67.103920 163.955627,66.943527 
z"/>
<path fill="#E3A85A" opacity="1.000000" stroke="none" 
	d="
M163.556061,66.955627 
	C164.814163,67.103920 165.672699,67.264305 166.745331,67.670212 
	C165.470612,68.072273 163.981812,68.228828 162.222992,68.638748 
	C160.247238,68.934151 158.541489,68.976196 156.407135,69.015701 
	C158.371201,68.331352 160.763855,67.649536 163.556061,66.955627 
z"/>
<path fill="#E3A85A" opacity="1.000000" stroke="none" 
	d="
M155.232605,69.900551 
	C154.233521,70.015793 153.450058,70.010674 152.271820,69.997055 
	C153.009018,69.650673 154.141006,69.312782 155.646515,68.981125 
	C155.907333,69.307831 155.716736,69.572105 155.232605,69.900551 
z"/>
<path fill="#BA672A" opacity="1.000000" stroke="none" 
	d="
M140.196136,210.957809 
	C140.581909,211.247375 140.967682,211.536926 141.565109,211.935883 
	C143.545807,216.759384 145.314850,221.473450 147.108078,226.565643 
	C141.137451,225.317886 135.038040,223.997696 129.173523,221.990997 
	C121.347359,219.313080 113.748703,215.975693 105.954994,213.194290 
	C103.522911,212.326324 100.775688,212.341415 97.664719,211.910797 
	C96.752647,208.027878 96.250443,204.193375 95.977318,200.342621 
	C95.779213,197.549591 95.884514,194.735046 95.910019,191.464020 
	C101.545532,193.462830 107.087105,196.019882 112.715988,198.367615 
	C118.812263,200.910294 124.989937,203.257812 131.350067,205.776749 
	C131.757751,204.571472 132.115799,203.512955 133.089600,202.288361 
	C135.868942,205.067444 138.032532,208.012619 140.196136,210.957809 
z"/>
<path fill="#B56329" opacity="1.000000" stroke="none" 
	d="
M140.148010,210.583984 
	C138.032532,208.012619 135.868942,205.067444 133.350220,202.060745 
	C132.599716,200.720123 132.204300,199.441010 131.414398,197.763397 
	C130.679596,196.808563 130.339279,196.252243 129.998947,195.695923 
	C129.998947,195.695923 130.025665,195.435425 130.037277,195.307281 
	C126.280426,186.221191 122.511955,177.263260 118.465904,168.102356 
	C117.994843,167.054092 117.801353,166.208801 117.369202,165.137848 
	C115.060974,156.536514 112.991409,148.160812 111.266586,139.424988 
	C113.697357,140.379669 115.783394,141.694458 117.869431,143.009247 
	C118.301491,145.728561 118.733543,148.447891 119.245071,151.575699 
	C119.659248,153.224060 119.993950,154.463913 120.623627,156.205566 
	C121.218521,157.147095 121.518440,157.586807 121.848839,158.394043 
	C122.241722,159.877396 122.604141,160.993256 122.958496,162.493927 
	C123.931679,165.351944 124.912926,167.825134 125.894173,170.298309 
	C125.894173,170.298309 125.828712,170.600906 125.874786,171.088226 
	C126.251709,172.133072 126.582565,172.690613 126.913422,173.248154 
	C128.421005,178.339584 129.928589,183.431030 131.699173,188.762451 
	C133.279343,192.435699 134.596512,195.868927 136.006592,199.656891 
	C137.432983,203.411118 138.766434,206.810654 140.148010,210.583984 
z"/>
<path fill="#DF9444" opacity="1.000000" stroke="none" 
	d="
M130.000854,196.049210 
	C130.339279,196.252243 130.679596,196.808563 131.066528,197.695038 
	C130.743027,197.484299 130.372894,196.943390 130.000854,196.049210 
z"/>
<path fill="#BA672A" opacity="1.000000" stroke="none" 
	d="
M150.735382,234.110382 
	C150.935501,234.363953 150.784912,234.630417 150.243103,234.852005 
	C150.120590,234.616791 150.298172,234.388840 150.735382,234.110382 
z"/>
<path fill="#DBA258" opacity="1.000000" stroke="none" 
	d="
M125.928329,169.856628 
	C124.912926,167.825134 123.931679,165.351944 122.968613,162.108856 
	C122.597321,160.234802 122.207848,159.130676 121.818367,158.026535 
	C121.518440,157.586807 121.218521,157.147095 120.842819,156.445999 
	C124.883690,150.047150 128.576263,143.561050 133.247070,137.879120 
	C137.199097,133.071594 141.360458,127.796242 148.779083,128.176514 
	C148.589630,130.199432 148.230972,131.593338 147.872314,132.987259 
	C139.603851,136.207596 134.569000,142.866257 131.223938,150.450500 
	C128.604248,156.390091 127.654297,163.066116 125.928329,169.856628 
z"/>
<path fill="#AF6A28" opacity="1.000000" stroke="none" 
	d="
M147.916458,133.414215 
	C148.230972,131.593338 148.589630,130.199432 148.989227,128.451141 
	C150.450378,126.716354 151.870575,125.335945 153.636230,124.311745 
	C155.878799,129.841171 157.791718,135.008667 159.665695,140.190262 
	C160.482895,142.449814 161.220276,144.738220 161.993896,147.013535 
	C161.550949,147.015396 161.108002,147.017258 160.332947,147.024933 
	C158.564697,146.382339 157.128586,145.733948 155.343567,145.054306 
	C153.858887,144.096527 152.723129,143.169998 151.201218,141.887085 
	C150.630066,141.266113 150.384644,141.082138 150.078812,140.978745 
	C149.618408,140.345490 149.157990,139.712219 148.387421,139.027588 
	C148.038376,137.264511 147.999481,135.552841 147.916458,133.414215 
z"/>
<path fill="#DBA258" opacity="1.000000" stroke="none" 
	d="
M126.920029,172.903915 
	C126.582565,172.690613 126.251709,172.133072 125.902382,171.240540 
	C126.231483,171.456924 126.579056,172.008301 126.920029,172.903915 
z"/>
<path fill="#C69356" opacity="1.000000" stroke="none" 
	d="
M149.724457,141.020050 
	C150.384644,141.082138 150.630066,141.266113 150.917999,141.739777 
	C148.914703,144.840439 146.609924,147.609467 144.736832,150.644867 
	C136.891098,163.359116 139.190735,175.227646 147.995850,186.474899 
	C148.697968,187.371765 149.284409,188.359177 149.962067,189.653473 
	C148.933380,189.767715 147.571701,189.875031 146.845169,189.247238 
	C134.954987,178.973297 133.570694,158.388168 143.935043,146.595947 
	C145.639404,144.656769 147.553116,142.901581 149.724457,141.020050 
z"/>
<path fill="#CA7A2D" opacity="1.000000" stroke="none" 
	d="
M199.968491,147.695969 
	C194.321899,148.018661 188.630798,147.978027 182.466431,147.557693 
	C180.697357,145.353775 179.730927,143.114853 178.047928,141.778152 
	C171.273178,136.397339 167.452408,129.753326 168.455048,120.901886 
	C171.268616,120.898697 173.638779,120.912674 176.008926,120.926643 
	C174.802414,129.416840 184.333740,139.907196 193.007477,143.209595 
	C195.478119,144.150238 197.627365,145.934967 199.968491,147.695969 
z"/>
<path fill="#F3B45D" opacity="1.000000" stroke="none" 
	d="
M176.336945,120.916161 
	C173.638779,120.912674 171.268616,120.898697 168.009125,120.888664 
	C164.740479,120.818771 162.361160,120.744934 159.981857,120.671104 
	C160.233139,120.247284 160.492218,119.448929 160.734573,119.453964 
	C168.407074,119.613747 176.077972,119.851540 183.847824,120.449150 
	C182.577637,120.856506 181.208740,120.892197 179.168030,120.929413 
	C178.323181,120.934578 178.150116,120.938225 177.977051,120.941872 
	C177.539688,120.929810 177.102325,120.917747 176.336945,120.916161 
z"/>
<path fill="#CA7A2D" opacity="1.000000" stroke="none" 
	d="
M178.069336,121.114594 
	C178.150116,120.938225 178.323181,120.934578 178.755768,120.943970 
	C178.730743,121.067116 178.446182,121.177216 178.069336,121.114594 
z"/>
<path fill="#C9742D" opacity="1.000000" stroke="none" 
	d="
M129.932526,81.542580 
	C129.042633,83.063164 128.114929,84.224602 127.043221,85.672165 
	C125.557571,87.549614 124.215919,89.140923 122.239861,90.867180 
	C120.518448,89.903877 119.329102,88.888206 118.363716,87.691811 
	C115.514587,84.160912 112.754097,80.558495 109.958923,76.984070 
	C109.982925,75.605003 110.006927,74.225945 110.031769,72.433914 
	C110.369736,70.930748 110.706871,69.840561 111.048843,68.386688 
	C112.680031,64.595985 114.306396,61.168957 115.992805,57.378666 
	C116.983917,57.587147 118.352417,57.934978 118.777618,58.765659 
	C122.577858,66.189857 126.211815,73.699165 129.932526,81.542580 
z"/>
<path fill="#DF9444" opacity="1.000000" stroke="none" 
	d="
M116.242722,55.825653 
	C115.996613,55.263428 115.996483,54.512348 115.999649,53.386269 
	C116.164848,53.886444 116.326767,54.761620 116.242722,55.825653 
z"/>
<path fill="#EAAD5B" opacity="1.000000" stroke="none" 
	d="
M139.687744,74.945869 
	C139.520691,75.247902 139.057831,75.596977 138.288757,75.966866 
	C138.452332,75.656090 138.922134,75.324501 139.687744,74.945869 
z"/>
<path fill="#D7802F" opacity="1.000000" stroke="none" 
	d="
M123.213654,42.830505 
	C123.139610,42.438789 123.318207,41.886372 123.740921,41.166824 
	C123.812119,41.556400 123.639206,42.113102 123.213654,42.830505 
z"/>
<path fill="#D7802F" opacity="1.000000" stroke="none" 
	d="
M124.216476,40.881371 
	C124.097069,40.666126 124.281570,40.407005 124.769028,40.103081 
	C124.891235,40.319866 124.707359,40.579609 124.216476,40.881371 
z"/>
<path fill="#C1742B" opacity="1.000000" stroke="none" 
	d="
M159.979248,120.758911 
	C162.361160,120.744934 164.740479,120.818771 167.565704,120.905830 
	C167.452408,129.753326 171.273178,136.397339 178.047928,141.778152 
	C179.730927,143.114853 180.697357,145.353775 182.002686,147.532196 
	C178.648056,147.904846 175.283920,147.923279 171.454773,147.562195 
	C169.777435,145.074677 168.852325,142.721252 167.299652,140.904022 
	C162.373962,135.139084 159.688385,128.657364 160.001495,121.020630 
	C160.001495,121.020630 159.976624,120.846718 159.979248,120.758911 
z"/>
<path fill="#B76F2A" opacity="1.000000" stroke="none" 
	d="
M159.650406,121.048317 
	C159.688385,128.657364 162.373962,135.139084 167.299652,140.904022 
	C168.852325,142.721252 169.777435,145.074677 170.997543,147.538940 
	C168.273178,147.612076 165.541046,147.328949 162.401398,147.029678 
	C161.220276,144.738220 160.482895,142.449814 159.665695,140.190262 
	C157.791718,135.008667 155.878799,129.841171 153.965836,124.227554 
	C155.733093,122.883438 157.516205,121.979721 159.650406,121.048317 
z"/>
<path fill="#C36E2B" opacity="1.000000" stroke="none" 
	d="
M109.690643,77.269165 
	C112.754097,80.558495 115.514587,84.160912 118.363716,87.691811 
	C119.329102,88.888206 120.518448,89.903877 121.994324,91.066483 
	C120.445717,97.567596 118.508240,104.004364 115.957779,110.686203 
	C111.257935,107.431854 106.366890,104.418579 107.929214,97.688095 
	C108.109428,96.911766 107.353035,95.918030 107.030891,95.025093 
	C107.828049,89.201477 108.625206,83.377869 109.690643,77.269165 
z"/>
<path fill="#B96629" opacity="1.000000" stroke="none" 
	d="
M107.010574,95.490738 
	C107.353035,95.918030 108.109428,96.911766 107.929214,97.688095 
	C106.366890,104.418579 111.257935,107.431854 115.702080,110.974930 
	C116.033752,116.033943 116.008141,121.049294 116.024048,126.529572 
	C116.390633,131.033401 116.715698,135.072281 117.082115,139.548843 
	C117.377586,140.783463 117.631706,141.580414 117.877625,142.693298 
	C115.783394,141.694458 113.697357,140.379669 111.249100,139.021622 
	C106.698532,124.899406 106.752029,110.436256 107.010574,95.490738 
z"/>
<path fill="#E3A85A" opacity="1.000000" stroke="none" 
	d="
M121.848839,158.394043 
	C122.207848,159.130676 122.597321,160.234802 122.976677,161.724030 
	C122.604141,160.993256 122.241722,159.877396 121.848839,158.394043 
z"/>
</svg>